<svg xmlns="http://www.w3.org/2000/svg" xmlns:xlink="http://www.w3.org/1999/xlink" viewBox="0 0 254.7 170.36"><defs><style>.cls-1{fill:none;}.cls-2{fill:#f92d2f;}.cls-3{isolation:isolate;}.cls-4{clip-path:url(#clip-path);}.cls-5{fill:#f2f2f2;}</style><clipPath id="clip-path"><polygon class="cls-1" points="10.75 145.56 26.07 10.3 229.01 10.3 213.69 145.56 10.75 145.56"/></clipPath></defs><title>Logo</title><g id="Layer_2" data-name="Layer 2"><g id="Layer_1-2" data-name="Layer 1"><path d="M30.75,165.36A7.18,7.18,0,0,1,27,164.29c-6.73-4.23-13-8.19-19.07-12.1A6.53,6.53,0,0,1,5,146.3c.15-1.56.33-3.13.51-4.7s.34-2.9.48-4.36a6,6,0,0,1,4.23-5.35c1-8.65,1.83-16.35,2.66-23.42-2.47-2-3.46-5.07-2.69-8.68a35.86,35.86,0,0,0,.57-4.46c.05-.64.11-1.27.17-1.9a6.14,6.14,0,0,1,5.17-5.62c1.35-.26,2.69-.57,4-.87l.63-.14c.07-.6.13-1.19.2-1.79.15-1.34.31-2.68.44-4a5.93,5.93,0,0,1,4.24-5.27l.14-1.28c.84-7.25,1.7-14.73,2.51-22.12-1.88-1.59-3.59-4.36-2.62-9a41.61,41.61,0,0,0,.58-4.56c.07-.81.14-1.62.24-2.44l.39-3.54,6.41-1.44,6.55-1.46,3.17-.7c7-1.55,14.28-3.16,21.44-4.69a7.62,7.62,0,0,1,1.6-.17,7.21,7.21,0,0,1,4.7,1.65c.75.65,1.15.65,1.32.65a3.18,3.18,0,0,0,1.1-.26,5.17,5.17,0,0,1,1-.31,11.57,11.57,0,0,1,4.21-.81,13.52,13.52,0,0,1,8.1,3c2,1.48,4.17,2.79,6.48,4.18l.92.55c1.14-.23,2.28-.48,3.43-.74l1-.22.82-7.22.11-1c.11-1,.22-2.09.42-3.21a6.23,6.23,0,0,1,4.56-4.9c4.63-1.09,8.8-2,12.75-2.84a5.67,5.67,0,0,1,1.24-.13,7.71,7.71,0,0,1,4,1.2c2.59,1.62,5.17,3.26,7.75,4.89L133.51,21l.87-7.73a6,6,0,0,1,4.79-5.39q2.91-.62,5.81-1.28c2.24-.49,4.48-1,6.72-1.46A6.11,6.11,0,0,1,153,5a7.81,7.81,0,0,1,4,1.21c4.39,2.75,9.16,5.77,15,9.47,1.35-.33,2.76-.62,4.28-.87a7.62,7.62,0,0,1,1.18-.1,7.91,7.91,0,0,1,2.51.42,6.22,6.22,0,0,1,3.42-2l12.57-2.77q7-1.56,14-3.09a6.53,6.53,0,0,1,1.33-.14A7.1,7.1,0,0,1,215,8.26c6.16,3.87,12.43,7.84,19.16,12.14A8.69,8.69,0,0,1,236.75,23c1.59,2.51,2.85,4.57,4,6.47a7.77,7.77,0,0,1,1,4.61c-.24,2.26-.5,4.51-.75,6.77-.21,1.87-.42,3.75-.62,5.62,2.51,2.1,3.46,5.25,2.63,9a34.07,34.07,0,0,0-.56,4.51c0,.46-.07.93-.11,1.39a6.21,6.21,0,0,1-2.38,4.5c2.11,1.34,4.24,2.69,6.36,4a6.7,6.7,0,0,1,3.3,7.1c-.43,2.79-.71,5.68-.93,8.13a6.06,6.06,0,0,1-5,5.65c-5,1.08-9.15,2-13,2.89l0,0a4,4,0,0,0-1.48,3.49,35.7,35.7,0,0,1-.42,4.65c2.47,2,3.42,5.17,2.59,8.82a29,29,0,0,0-.46,3.58c-.08.94-.17,1.9-.31,2.91a6.37,6.37,0,0,1-4.7,5.16c-5.28,1.22-10.74,2.43-16.22,3.6a6.55,6.55,0,0,1-1.34.14,7.67,7.67,0,0,1-2.23-.35,16.6,16.6,0,0,1-6.63,2.53c-3.36.65-6.78,1.42-10.1,2.16-2,.45-4,.9-6,1.32a6.62,6.62,0,0,1-1.41.15,7.09,7.09,0,0,1-2.46-.44,6.53,6.53,0,0,1-3.53,2l-14.55,3.19-14,3.08a6.85,6.85,0,0,1-1.45.16,7.09,7.09,0,0,1-3.71-1.05l-4.32-2.7c-5-3.11-10.14-6.32-15.13-9.68a33.49,33.49,0,0,1-4.12-3.41c-.09.86-.2,1.71-.31,2.54l-.09.7c1.91,1.64,3.59,4.48,2.57,9.31a35.15,35.15,0,0,0-.52,4.17c0,.44-.07.89-.12,1.33a6.24,6.24,0,0,1-5.17,5.84c-2.76.58-5.5,1.19-8.25,1.8-2.47.55-5,1.1-7.42,1.63a7.12,7.12,0,0,1-1.39.14,8.24,8.24,0,0,1-2.3-.35,15.84,15.84,0,0,1-6.4,2.5c-4.45.88-9,1.92-13.37,2.92l-2.52.57a8.08,8.08,0,0,1-1.87.22,7.21,7.21,0,0,1-2.49-.43,6.35,6.35,0,0,1-3.39,1.93l-13.83,3q-9.81,2.18-19.63,4.32A6.43,6.43,0,0,1,30.75,165.36Z"/><path class="cls-2" d="M153,10a2.81,2.81,0,0,1,1.38.44q7.88,4.94,15.7,10a2.62,2.62,0,0,0,1.46.5,2.53,2.53,0,0,0,.64-.09c1.62-.44,3.27-.78,4.92-1.06a2.19,2.19,0,0,1,.36,0,2.76,2.76,0,0,1,1.28.32c1.45.82,2.83,1.76,4.35,2.71.16-1.34.33-2.51.44-3.7.05-.62.32-.84.94-1,8.85-1.94,17.69-3.92,26.55-5.85a1.09,1.09,0,0,1,.26,0,2.15,2.15,0,0,1,1.06.31q9.59,6,19.14,12.12a3.71,3.71,0,0,1,1.06,1.1c1.33,2.09,2.63,4.19,3.88,6.33a2.66,2.66,0,0,1,.35,1.56c-.52,4.92-1.11,9.84-1.61,14.77a1.44,1.44,0,0,0,.63,1.18c2.29.94,2.86,2.52,2.34,4.89a49.39,49.39,0,0,0-.77,6.55c-.08.83-.45,1.13-1.23,1.29-2.68.54-5.35,1.16-8.29,1.82l1.25.85c4.85,3.08,9.7,6.19,14.58,9.23a1.77,1.77,0,0,1,1,2.08c-.43,2.81-.72,5.63-1,8.46-.07.81-.41,1-1.12,1.2-4.49,1-9,2-13.45,3a4.42,4.42,0,0,0-1.7,1,9,9,0,0,0-3.32,7.31,56.08,56.08,0,0,1-.69,6.31c-.09.69,0,1.2.69,1.46,2.21.84,2.83,2.31,2.3,4.65s-.53,4.6-.85,6.89a1.48,1.48,0,0,1-.88,1c-5.36,1.24-10.75,2.43-16.13,3.58a1.53,1.53,0,0,1-.3,0,3.16,3.16,0,0,1-1.24-.32,18.08,18.08,0,0,1-1.85-1.14c-.15.07-.2.08-.22.11-1.5,2.41-3.87,3.11-6.5,3.62-5.41,1-10.77,2.35-16.16,3.5a1.37,1.37,0,0,1-.36,0,2.2,2.2,0,0,1-1.06-.27c-1.45-.84-2.85-1.76-4.47-2.79-.16,1.26-.36,2.37-.42,3.49,0,.8-.35,1.06-1.11,1.22-9.52,2.08-19,4.2-28.55,6.28a2.22,2.22,0,0,1-.38,0,2,2,0,0,1-1-.28c-6.46-4.06-13-8-19.31-12.3-2.52-1.7-4.58-4.09-6.88-6.13-.7-.63-1.39-1.22-1.08-2.39-1.42,1.8-3.62,2.88-3.7,5.65s-.63,5.79-.91,8.7a1.34,1.34,0,0,0,.52,1.11c2.63,1,2.93,2.86,2.41,5.31a53.47,53.47,0,0,0-.72,6.07A1.33,1.33,0,0,1,114,142c-5.24,1.1-10.45,2.31-15.68,3.43a2.07,2.07,0,0,1-.35,0,3.94,3.94,0,0,1-1.43-.34,13.41,13.41,0,0,1-1.8-1.11c-.17.11-.3.15-.36.24-1.38,2.3-3.61,3-6.08,3.46-5.37,1.06-10.7,2.31-16,3.52a3.47,3.47,0,0,1-.75.09,2.5,2.5,0,0,1-1.48-.49c-1.26-.89-2.6-1.67-4.08-2.6-.15,1.29-.33,2.39-.39,3.49a1.12,1.12,0,0,1-1,1.21c-11.15,2.45-22.3,4.93-33.46,7.36a1.12,1.12,0,0,1-.32,0,2.17,2.17,0,0,1-1.11-.31q-9.54-6-19-12.07a1.58,1.58,0,0,1-.61-1.2c.29-3,.7-6,1-9.06.07-.75.35-1,1-1.14,2.84-.64,2.79-.67,3.12-3.71q1.44-13,3-26c.1-.81-.05-1.32-.79-1.6-2.1-.82-2.71-2.23-2.23-4.46a63.09,63.09,0,0,0,.83-6.9,1.19,1.19,0,0,1,1.14-1.22c2.51-.49,5-1.11,7.49-1.62a1,1,0,0,0,.91-1c.29-2.86.64-5.72.94-8.58.06-.6.23-.92.88-1,1-.17,2.25-.2,2.79-.82s.38-1.89.5-2.88c1-8.73,2-17.47,3-26.21a1.53,1.53,0,0,0-.66-1.28c-2.42-1-2.77-2.63-2.28-5s.6-4.9.89-7.45L41,34.71c8.19-1.81,16.37-3.63,24.57-5.38a2.47,2.47,0,0,1,.56-.06,2.27,2.27,0,0,1,1.41.41,6.87,6.87,0,0,0,4.61,1.89,7.86,7.86,0,0,0,3-.63c.18-.08.41-.05.59-.13a7,7,0,0,1,2.78-.62,8.7,8.7,0,0,1,5.13,2c2.75,2,5.75,3.75,8.68,5.54a2.46,2.46,0,0,0,1.24.32,1.75,1.75,0,0,0,.4,0c2.47-.48,4.92-1.06,7.38-1.58a12.8,12.8,0,0,1,1.63-.12c.41-3.59.84-7.3,1.26-11,.15-1.31.25-2.63.48-3.92a1.34,1.34,0,0,1,.79-.91c4.19-1,8.4-1.93,12.62-2.81a.82.82,0,0,1,.22,0,2.73,2.73,0,0,1,1.31.44c5.08,3.18,10.12,6.41,15.2,9.6a31.14,31.14,0,0,0,2.81,1.36c.24-2,.45-3.76.64-5.49q.57-4.87,1.11-9.77c.06-.55.16-.9.85-1.05,4.18-.88,8.34-1.86,12.52-2.73a1.09,1.09,0,0,1,.26,0m0-10a11.09,11.09,0,0,0-2.3.24c-2.28.47-4.57,1-6.78,1.47-1.92.43-3.84.86-5.77,1.27a10.86,10.86,0,0,0-8.7,9.51L124.9,9.64a12.58,12.58,0,0,0-6.62-2A11.58,11.58,0,0,0,116,7.9c-4,.84-8.21,1.78-12.86,2.87a11.2,11.2,0,0,0-8.34,8.9c-.23,1.29-.36,2.5-.47,3.57,0,.32-.07.64-.11,1l-.32,2.88c-1.57-1-3-1.9-4.39-2.89a18.29,18.29,0,0,0-11.07-4,16.57,16.57,0,0,0-5.62,1h0a12.42,12.42,0,0,0-6.72-1.92,12.88,12.88,0,0,0-2.65.28C56.24,21.09,49,22.7,41.91,24.26L38.79,25,32.28,26.4l-3,.67-7,1.56-.79,7.09c-.1.85-.18,1.7-.25,2.54a37.47,37.47,0,0,1-.49,4c-1,5.06.11,9,2.29,11.8-.69,6.17-1.4,12.38-2.1,18.45a11,11,0,0,0-4.54,8l-.24,2.21-1,.21A11.2,11.2,0,0,0,6,92.92c-.07.65-.13,1.31-.18,2a36.32,36.32,0,0,1-.47,3.84,13.66,13.66,0,0,0,2.33,11.5C7,115.92,6.31,122,5.57,128.71a11,11,0,0,0-4.54,8C.9,138.16.74,139.55.57,141s-.37,3.17-.52,4.8a11.53,11.53,0,0,0,5.16,10.56c6.11,3.93,12.36,7.89,19.11,12.13a12.29,12.29,0,0,0,6.43,1.84,11.78,11.78,0,0,0,2.45-.26l19.56-4.3,13.92-3.07a11.76,11.76,0,0,0,3.6-1.44,12.1,12.1,0,0,0,1.21.06,13.27,13.27,0,0,0,3-.34l2.51-.57c4.36-1,8.86-2,13.24-2.9a22,22,0,0,0,6.41-2.12,12.12,12.12,0,0,0,3.75-.18l7.46-1.64c2.69-.6,5.48-1.21,8.19-1.79a11.23,11.23,0,0,0,9.13-10.26l.12-1.37a34.11,34.11,0,0,1,.43-3.56,20,20,0,0,0,.33-2.06c3.08,2,6.18,3.91,9.21,5.8l4.31,2.7a12.19,12.19,0,0,0,6.37,1.81,11.69,11.69,0,0,0,2.51-.27c4.69-1,9.38-2.06,14.07-3.09L177,138.32a11.79,11.79,0,0,0,3.73-1.48q.6.06,1.2.06a11.71,11.71,0,0,0,2.45-.26c2-.43,4-.88,6-1.33,3.43-.77,6.67-1.5,10-2.13A23,23,0,0,0,207,131a11.55,11.55,0,0,0,3.66-.18c5.53-1.18,11-2.4,16.31-3.62a11.36,11.36,0,0,0,8.52-9.34c.16-1.13.26-2.2.34-3.15a24.15,24.15,0,0,1,.36-2.92,13.8,13.8,0,0,0-2.22-11.65c.07-.68.12-1.39.15-2.12,3.15-.72,6.59-1.48,10.6-2.35a11.06,11.06,0,0,0,9-10.08c.21-2.38.49-5.17.89-7.83a11.63,11.63,0,0,0-5.6-12.09l-2.13-1.33a11.84,11.84,0,0,0,.49-2.48l.12-1.45a29.15,29.15,0,0,1,.45-3.82,14,14,0,0,0-2.29-11.86c.12-1.1.25-2.19.37-3.28.25-2.27.51-4.55.75-6.83A12.72,12.72,0,0,0,245,27c-1.15-2-2.4-4-4.06-6.62a13.54,13.54,0,0,0-4.14-4.18c-6.76-4.31-13-8.29-19.19-12.16a12.22,12.22,0,0,0-6.38-1.84,11.22,11.22,0,0,0-2.39.26c-4.69,1-9.36,2.06-14,3.09q-6.26,1.39-12.52,2.76a11.73,11.73,0,0,0-3.66,1.48c-.4,0-.81-.06-1.21-.06a12.21,12.21,0,0,0-2,.17c-.87.14-1.7.3-2.52.47-5-3.2-9.28-5.9-13.24-8.38A12.79,12.79,0,0,0,153,0Z"/><g class="cls-3"><polygon points="30.91 47.3 32.12 36.6 52.53 49.54 51.32 60.24 30.91 47.3"/><polygon points="34.03 43.72 34.57 38.95 54.98 51.89 54.44 56.66 34.03 43.72"/><polygon points="34.57 38.95 54.98 51.89 54.44 56.66 34.03 43.72 34.57 38.95"/><polygon points="34.63 46.48 55.04 59.42 51.32 60.24 30.91 47.3 34.63 46.48"/><polygon points="37.75 42.9 58.16 55.84 54.44 56.66 34.03 43.72 37.75 42.9"/><polygon points="30.88 79.62 34.63 46.48 55.04 59.42 51.29 92.56 30.88 79.62"/><polygon points="27.15 80.44 30.88 79.62 51.29 92.56 47.56 93.39 27.15 80.44"/><polygon points="33.33 81.97 37.75 42.9 58.16 55.84 53.74 94.91 33.33 81.97"/><polygon points="34.03 43.72 37.75 42.9 58.16 55.84 54.44 56.66 34.03 43.72"/><polygon points="32.12 36.6 67.16 28.85 87.57 41.79 52.53 49.54 32.12 36.6"/><polygon points="46.67 36.27 67.08 49.21 54.98 51.89 34.57 38.95 46.67 36.27"/><polygon points="34.57 38.95 46.67 36.27 67.08 49.21 54.98 51.89 34.57 38.95"/><polygon points="46.13 41.05 66.54 53.99 62.82 54.81 42.41 41.87 46.13 41.05"/><polygon points="42.41 41.87 46.13 41.05 66.54 53.99 62.82 54.81 42.41 41.87"/><polygon points="46.13 41.05 46.67 36.27 67.08 49.21 66.54 53.99 46.13 41.05"/><polygon points="46.67 36.27 67.08 49.21 66.54 53.99 46.13 41.05 46.67 36.27"/><polygon points="51.4 39.88 51.94 35.11 72.35 48.05 71.81 52.82 51.4 39.88"/><polygon points="51.94 35.11 72.35 48.05 71.81 52.82 51.4 39.88 51.94 35.11"/><polygon points="37.75 42.9 58.16 55.84 53.74 94.91 33.33 81.97 37.75 42.9"/><polygon points="40.47 59.02 42.41 41.87 62.82 54.81 60.88 71.96 40.47 59.02"/><polygon points="42.41 41.87 62.82 54.81 60.88 71.96 40.47 59.02 42.41 41.87"/><polygon points="44.86 44.21 65.27 57.15 64 68.37 43.59 55.43 44.86 44.21"/><polygon points="52 42.64 72.41 55.58 65.27 57.15 44.86 44.21 52 42.64"/><polygon points="55.13 39.05 75.54 52 71.81 52.82 51.4 39.88 55.13 39.05"/><polygon points="50.73 53.85 52 42.64 72.41 55.58 71.14 66.79 50.73 53.85"/><polygon points="43.59 55.43 50.73 53.85 71.14 66.79 64 68.37 43.59 55.43"/><polygon points="53.19 56.2 55.13 39.05 75.54 52 73.59 69.14 53.19 56.2"/><polygon points="51.4 39.88 55.13 39.05 75.54 52 71.81 52.82 51.4 39.88"/><polygon points="15.47 103.45 16.68 92.75 37.09 105.69 35.88 116.39 15.47 103.45"/><polygon points="18.6 99.87 19.14 95.1 39.55 108.04 39.01 112.81 18.6 99.87"/><polygon points="19.14 95.1 39.55 108.04 39.01 112.81 18.6 99.87 19.14 95.1"/><polygon points="16.68 92.75 25.99 90.69 46.4 103.64 37.09 105.69 16.68 92.75"/><polygon points="25.99 90.69 27.15 80.44 47.56 93.39 46.4 103.64 25.99 90.69"/><polygon points="19.19 102.63 39.6 115.57 35.88 116.39 15.47 103.45 19.19 102.63"/><polygon points="29.06 87.56 29.6 82.78 50.01 95.72 49.47 100.5 29.06 87.56"/><polygon points="29.6 82.78 50.01 95.72 49.47 100.5 29.06 87.56 29.6 82.78"/><polygon points="64.04 32.43 84.45 45.37 72.35 48.05 51.94 35.11 64.04 32.43"/><polygon points="51.94 35.11 64.04 32.43 84.45 45.37 72.35 48.05 51.94 35.11"/><polygon points="22.32 99.05 42.73 111.99 39.01 112.81 18.6 99.87 22.32 99.05"/><polygon points="11.71 136.59 15.44 135.77 35.85 148.71 32.13 149.53 11.71 136.59"/><polygon points="15.44 135.77 19.19 102.63 39.6 115.57 35.85 148.71 15.44 135.77"/><polygon points="17.9 138.12 22.32 99.05 42.73 111.99 38.31 151.06 17.9 138.12"/><polygon points="18.6 99.87 22.32 99.05 42.73 111.99 39.01 112.81 18.6 99.87"/><polygon points="33.33 81.97 53.74 94.91 50.01 95.72 29.6 82.78 33.33 81.97"/><polygon points="29.6 82.78 33.33 81.97 53.74 94.91 50.01 95.72 29.6 82.78"/><polygon points="63.5 37.2 83.91 50.14 80.19 50.97 59.78 38.03 63.5 37.2"/><polygon points="59.78 38.03 63.5 37.2 83.91 50.14 80.19 50.97 59.78 38.03"/><polygon points="63.5 37.2 64.04 32.43 84.45 45.37 83.91 50.14 63.5 37.2"/><polygon points="64.04 32.43 84.45 45.37 83.91 50.14 63.5 37.2 64.04 32.43"/><polygon points="55.13 39.05 75.54 52 73.59 69.14 53.19 56.2 55.13 39.05"/><polygon points="53.19 56.2 73.59 69.14 60.88 71.96 40.47 59.02 53.19 56.2"/><polygon points="40.47 59.02 53.19 56.2 73.59 69.14 60.88 71.96 40.47 59.02"/><polygon points="37.99 80.93 39.93 63.79 60.34 76.73 58.4 93.87 37.99 80.93"/><polygon points="39.93 63.79 60.34 76.73 58.4 93.87 37.99 80.93 39.93 63.79"/><polygon points="41.71 80.11 62.12 93.06 58.4 93.87 37.99 80.93 41.71 80.11"/><polygon points="37.99 80.93 41.71 80.11 62.12 93.06 58.4 93.87 37.99 80.93"/><polygon points="41.17 84.89 61.58 97.83 49.47 100.5 29.06 87.56 41.17 84.89"/><polygon points="29.06 87.56 41.17 84.89 61.58 97.83 49.47 100.5 29.06 87.56"/><polygon points="41.17 84.89 41.71 80.11 62.12 93.06 61.58 97.83 41.17 84.89"/><polygon points="41.71 80.11 62.12 93.06 61.58 97.83 41.17 84.89 41.71 80.11"/><polygon points="42.38 66.14 62.79 79.08 61.52 90.3 41.11 77.36 42.38 66.14"/><polygon points="41.11 77.36 48.24 75.78 68.65 88.72 61.52 90.3 41.11 77.36"/><polygon points="46.44 83.72 46.98 78.94 67.39 91.88 66.85 96.66 46.44 83.72"/><polygon points="46.98 78.94 67.39 91.88 66.85 96.66 46.44 83.72 46.98 78.94"/><polygon points="52.64 60.98 73.05 73.92 60.34 76.73 39.93 63.79 52.64 60.98"/><polygon points="50.7 78.12 52.64 60.98 73.05 73.92 71.11 91.06 50.7 78.12"/><polygon points="39.93 63.79 52.64 60.98 73.05 73.92 60.34 76.73 39.93 63.79"/><polygon points="52.06 66.16 49.51 64.55 42.38 66.14 51.41 71.86 52.06 66.16"/><polygon points="52.06 66.16 49.51 64.55 48.24 75.78 50.78 77.39 52.06 66.16"/><polygon points="52.64 60.98 73.05 73.92 71.11 91.06 50.7 78.12 52.64 60.98"/><polygon points="50.7 78.12 71.11 91.06 67.39 91.88 46.98 78.94 50.7 78.12"/><polygon points="46.98 78.94 50.7 78.12 71.11 91.06 67.39 91.88 46.98 78.94"/><polygon points="58.54 81.04 78.95 93.98 66.85 96.66 46.44 83.72 58.54 81.04"/><polygon points="46.44 83.72 58.54 81.04 78.95 93.98 66.85 96.66 46.44 83.72"/><polygon points="51.73 85 72.14 97.94 46.4 103.64 25.99 90.69 51.73 85"/><polygon points="51.68 85.45 51.73 85 72.14 97.94 72.09 98.39 51.68 85.45"/><polygon points="55.35 77.09 59.78 38.03 80.19 50.97 75.77 90.03 55.35 77.09"/><polygon points="59.78 38.03 80.19 50.97 75.77 90.03 55.35 77.09 59.78 38.03"/><polygon points="62.23 40.37 82.64 53.31 78.89 86.46 58.48 73.52 62.23 40.37"/><polygon points="59.08 76.27 79.49 89.21 75.77 90.03 55.35 77.09 59.08 76.27"/><polygon points="55.35 77.09 59.08 76.27 79.49 89.21 75.77 90.03 55.35 77.09"/><polygon points="62.2 72.69 82.61 85.63 82.31 85.7 61.9 72.76 62.2 72.69"/><polygon points="61.9 72.76 62.2 72.69 82.61 85.63 82.31 85.7 61.9 72.76"/><polygon points="58.48 73.52 62.2 72.69 82.61 85.63 78.89 86.46 58.48 73.52"/><polygon points="58.54 81.04 59.08 76.27 79.49 89.21 78.95 93.98 58.54 81.04"/><polygon points="59.08 76.27 79.49 89.21 78.95 93.98 58.54 81.04 59.08 76.27"/><polygon points="60.69 83.45 61.9 72.76 82.31 85.7 81.1 96.39 60.69 83.45"/><polygon points="60.99 83.39 81.4 96.33 81.1 96.39 60.69 83.45 60.99 83.39"/><polygon points="61.9 72.76 82.31 85.7 81.1 96.39 60.69 83.45 61.9 72.76"/><polygon points="60.99 83.39 81.4 96.33 72.09 98.39 51.68 85.45 60.99 83.39"/><polygon points="25.99 90.69 51.73 85 72.14 97.94 46.4 103.64 25.99 90.69"/><polygon points="31.23 92.42 51.65 105.36 39.55 108.04 19.14 95.1 31.23 92.42"/><polygon points="19.14 95.1 31.23 92.42 51.65 105.36 39.55 108.04 19.14 95.1"/><polygon points="65.95 39.55 86.36 52.49 82.64 53.31 62.23 40.37 65.95 39.55"/><polygon points="67.16 28.85 87.57 41.79 86.36 52.49 65.95 39.55 67.16 28.85"/><polygon points="30.7 97.2 51.11 110.14 47.38 110.96 26.97 98.02 30.7 97.2"/><polygon points="26.97 98.02 30.7 97.2 51.11 110.14 47.38 110.96 26.97 98.02"/><polygon points="30.7 97.2 31.23 92.42 51.65 105.36 51.11 110.14 30.7 97.2"/><polygon points="31.23 92.42 51.65 105.36 51.11 110.14 30.7 97.2 31.23 92.42"/><polygon points="68.94 42.66 70.15 31.96 90.56 44.9 89.34 55.6 68.94 42.66"/><polygon points="72.06 39.08 72.6 34.31 93.01 47.25 92.47 52.02 72.06 39.08"/><polygon points="72.6 34.31 93.01 47.25 92.47 52.02 72.06 39.08 72.6 34.31"/><polygon points="35.97 96.03 36.51 91.26 56.92 104.2 56.38 108.97 35.97 96.03"/><polygon points="36.51 91.26 56.92 104.2 56.38 108.97 35.97 96.03 36.51 91.26"/><polygon points="22.32 99.05 42.73 111.99 38.31 151.06 17.9 138.12 22.32 99.05"/><polygon points="25.03 115.17 26.97 98.02 47.38 110.96 45.44 128.11 25.03 115.17"/><polygon points="26.97 98.02 47.38 110.96 45.44 128.11 25.03 115.17 26.97 98.02"/><polygon points="70.15 31.96 80.38 29.7 100.79 42.64 90.56 44.9 70.15 31.96"/><polygon points="77.25 33.28 97.66 46.22 93.01 47.25 72.6 34.31 77.25 33.28"/><polygon points="72.6 34.31 77.25 33.28 97.66 46.22 93.01 47.25 72.6 34.31"/><polygon points="63.9 55.09 65.11 44.39 85.52 57.33 84.31 68.03 63.9 55.09"/><polygon points="29.42 100.36 49.83 113.3 48.56 124.52 28.15 111.58 29.42 100.36"/><polygon points="36.57 98.79 56.98 111.73 49.83 113.3 29.42 100.36 36.57 98.79"/><polygon points="67.02 51.51 67.56 46.73 87.97 59.67 87.43 64.45 67.02 51.51"/><polygon points="67.56 46.73 87.97 59.67 87.43 64.45 67.02 51.51 67.56 46.73"/><polygon points="39.69 95.2 60.1 108.15 56.38 108.97 35.97 96.03 39.69 95.2"/><polygon points="35.3 110 36.57 98.79 56.98 111.73 55.71 122.94 35.3 110"/><polygon points="28.15 111.58 35.3 110 55.71 122.94 48.56 124.52 28.15 111.58"/><polygon points="37.75 112.35 39.69 95.2 60.1 108.15 58.16 125.29 37.75 112.35"/><polygon points="35.97 96.03 39.69 95.2 60.1 108.15 56.38 108.97 35.97 96.03"/><polygon points="76.71 38.05 97.12 51 92.47 52.02 72.06 39.08 76.71 38.05"/><polygon points="76.71 38.05 77.25 33.28 97.66 46.22 97.12 51 76.71 38.05"/><polygon points="77.25 33.28 97.66 46.22 97.12 51 76.71 38.05 77.25 33.28"/><polygon points="72.06 39.08 76.71 38.05 97.12 51 92.47 52.02 72.06 39.08"/><polygon points="67.62 54.27 88.03 67.21 84.31 68.03 63.9 55.09 67.62 54.27"/><polygon points="70.74 50.69 91.15 63.63 87.43 64.45 67.02 51.51 70.74 50.69"/><polygon points="67.02 51.51 70.74 50.69 91.15 63.63 87.43 64.45 67.02 51.51"/><polygon points="10.5 147.29 11.71 136.59 32.13 149.53 30.91 160.23 10.5 147.29"/><polygon points="79.17 40.4 99.58 53.34 89.34 55.6 68.94 42.66 79.17 40.4"/><polygon points="65.11 44.39 79.06 41.31 99.47 54.25 85.52 57.33 65.11 44.39"/><polygon points="75.94 44.88 96.35 57.82 87.97 59.67 67.56 46.73 75.94 44.88"/><polygon points="67.56 46.73 75.94 44.88 96.35 57.82 87.97 59.67 67.56 46.73"/><polygon points="13.63 143.71 14.17 138.93 34.59 151.87 34.04 156.66 13.63 143.71"/><polygon points="14.17 138.93 34.59 151.87 34.04 156.66 13.63 143.71 14.17 138.93"/><polygon points="48.61 88.58 69.02 101.52 56.92 104.2 36.51 91.26 48.61 88.58"/><polygon points="36.51 91.26 48.61 88.58 69.02 101.52 56.92 104.2 36.51 91.26"/><polygon points="80.38 29.7 100.79 42.64 99.58 53.34 79.17 40.4 80.38 29.7"/><polygon points="17.9 138.12 38.31 151.06 34.59 151.87 14.17 138.93 17.9 138.12"/><polygon points="14.17 138.93 17.9 138.12 38.31 151.06 34.59 151.87 14.17 138.93"/><polygon points="51.73 85 72.14 97.94 72.09 98.39 51.68 85.45 51.73 85"/><polygon points="48.07 93.35 48.61 88.58 69.02 101.52 68.48 106.3 48.07 93.35"/><polygon points="48.07 93.35 68.48 106.3 64.76 107.12 44.35 94.18 48.07 93.35"/><polygon points="44.35 94.18 48.07 93.35 68.48 106.3 64.76 107.12 44.35 94.18"/><polygon points="48.61 88.58 69.02 101.52 68.48 106.3 48.07 93.35 48.61 88.58"/><polygon points="37.75 112.35 58.16 125.29 45.44 128.11 25.03 115.17 37.75 112.35"/><polygon points="39.69 95.2 60.1 108.15 58.16 125.29 37.75 112.35 39.69 95.2"/><polygon points="25.03 115.17 37.75 112.35 58.16 125.29 45.44 128.11 25.03 115.17"/><polygon points="22.55 137.08 24.49 119.94 44.9 132.88 42.96 150.02 22.55 137.08"/><polygon points="24.49 119.94 44.9 132.88 42.96 150.02 22.55 137.08 24.49 119.94"/><polygon points="26.94 122.28 47.35 135.23 46.08 146.45 25.67 133.51 26.94 122.28"/><polygon points="37.21 117.12 57.62 130.06 44.9 132.88 24.49 119.94 37.21 117.12"/><polygon points="32.81 131.93 34.09 120.7 54.5 133.64 53.23 144.87 32.81 131.93"/><polygon points="25.67 133.51 32.81 131.93 53.23 144.87 46.08 146.45 25.67 133.51"/><polygon points="35.27 134.27 37.21 117.12 57.62 130.06 55.68 147.21 35.27 134.27"/><polygon points="34.09 120.7 51.12 131.5 57.62 130.06 37.21 117.12 24.49 119.94 33.52 125.67 34.09 120.7"/><polygon points="34.09 120.7 26.94 122.28 33.44 126.41 34.09 120.7"/><polygon points="51.68 85.45 72.09 98.39 70.93 108.64 50.52 95.7 51.68 85.45"/><polygon points="37.21 117.12 57.62 130.06 55.68 147.21 35.27 134.27 37.21 117.12"/><polygon points="39.92 133.24 44.35 94.18 64.76 107.12 60.34 146.18 39.92 133.24"/><polygon points="44.35 94.18 64.76 107.12 60.34 146.18 39.92 133.24 44.35 94.18"/><polygon points="50.52 95.7 70.93 108.64 67.21 109.46 46.8 96.52 50.52 95.7"/><polygon points="65.62 71.93 67.62 54.27 88.03 67.21 86.03 84.87 65.62 71.93"/><polygon points="62.2 72.69 65.62 71.93 86.03 84.87 82.61 85.63 62.2 72.69"/><polygon points="26.27 136.26 46.68 149.21 42.96 150.02 22.55 137.08 26.27 136.26"/><polygon points="22.55 137.08 26.27 136.26 46.68 149.21 42.96 150.02 22.55 137.08"/><polygon points="68.07 74.28 70.74 50.69 91.15 63.63 88.48 87.22 68.07 74.28"/><polygon points="70.74 50.69 91.15 63.63 88.48 87.22 68.07 74.28 70.74 50.69"/><polygon points="72.72 73.25 75.94 44.88 96.35 57.82 93.13 86.19 72.72 73.25"/><polygon points="75.94 44.88 96.35 57.82 93.13 86.19 72.72 73.25 75.94 44.88"/><polygon points="79.06 41.31 99.47 54.25 96.26 82.61 75.85 69.67 79.06 41.31"/><polygon points="81.82 46.36 88.07 39.31 108.48 52.25 102.23 59.3 81.82 46.36"/><polygon points="60.69 83.45 60.99 83.39 81.4 96.33 81.1 96.39 60.69 83.45"/><polygon points="63.81 79.88 64.35 75.11 84.76 88.05 84.22 92.82 63.81 79.88"/><polygon points="64.35 75.11 84.76 88.05 84.22 92.82 63.81 79.88 64.35 75.11"/><polygon points="25.73 141.04 26.27 136.26 46.68 149.21 46.14 153.98 25.73 141.04"/><polygon points="25.73 141.04 46.14 153.98 34.04 156.66 13.63 143.71 25.73 141.04"/><polygon points="13.63 143.71 25.73 141.04 46.14 153.98 34.04 156.66 13.63 143.71"/><polygon points="26.27 136.26 46.68 149.21 46.14 153.98 25.73 141.04 26.27 136.26"/><polygon points="68.07 74.28 88.48 87.22 84.76 88.05 64.35 75.11 68.07 74.28"/><polygon points="64.35 75.11 68.07 74.28 88.48 87.22 84.76 88.05 64.35 75.11"/><polygon points="89.27 41.93 109.68 54.87 104.83 60.34 84.42 47.4 89.27 41.93"/><polygon points="84.42 47.4 89.27 41.93 109.68 54.87 104.83 60.34 84.42 47.4"/><polygon points="46.8 96.52 67.21 109.46 63.46 142.61 43.05 129.67 46.8 96.52"/><polygon points="49.01 106.35 55.26 99.3 75.67 112.24 69.42 119.29 49.01 106.35"/><polygon points="31 139.87 31.54 135.09 51.95 148.03 51.41 152.81 31 139.87"/><polygon points="31.54 135.09 51.95 148.03 51.41 152.81 31 139.87 31.54 135.09"/><polygon points="35.27 134.27 55.68 147.21 51.95 148.03 31.54 135.09 35.27 134.27"/><polygon points="31.54 135.09 35.27 134.27 55.68 147.21 51.95 148.03 31.54 135.09"/><polygon points="56.47 101.92 76.88 114.87 72.03 120.33 51.62 107.39 56.47 101.92"/><polygon points="51.62 107.39 56.47 101.92 76.88 114.87 72.03 120.33 51.62 107.39"/><polygon points="92.16 45.95 112.57 58.89 109.09 62.81 88.68 49.87 92.16 45.95"/><polygon points="88.68 49.87 92.16 45.95 112.57 58.89 109.09 62.81 88.68 49.87"/><polygon points="76.44 72.43 96.86 85.37 93.13 86.19 72.72 73.25 76.44 72.43"/><polygon points="72.72 73.25 76.44 72.43 96.86 85.37 93.13 86.19 72.72 73.25"/><polygon points="79.27 68.92 81.82 46.36 102.23 59.3 99.68 81.86 79.27 68.92"/><polygon points="75.85 69.67 79.27 68.92 99.68 81.86 96.26 82.61 75.85 69.67"/><polygon points="93.36 48.57 113.77 61.52 111.69 63.85 91.28 50.91 93.36 48.57"/><polygon points="75.91 77.2 76.44 72.43 96.86 85.37 96.31 90.14 75.91 77.2"/><polygon points="76.44 72.43 96.86 85.37 96.31 90.14 75.91 77.2 76.44 72.43"/><polygon points="75.91 77.2 96.31 90.14 84.22 92.82 63.81 79.88 75.91 77.2"/><polygon points="63.81 79.88 75.91 77.2 96.31 90.14 84.22 92.82 63.81 79.88"/><polygon points="78.76 73.37 79.27 68.92 99.68 81.86 99.17 86.31 78.76 73.37"/><polygon points="79.27 68.92 99.68 81.86 99.17 86.31 78.76 73.37 79.27 68.92"/><polygon points="88.07 39.31 102.83 36.05 123.24 48.99 108.48 52.25 88.07 39.31"/><polygon points="79.03 73.62 78.76 73.37 99.17 86.31 99.44 86.56 79.03 73.62"/><polygon points="78.76 73.37 99.17 86.31 99.44 86.56 79.03 73.62 78.76 73.37"/><polygon points="59.35 105.94 79.77 118.88 76.29 122.8 55.88 109.86 59.35 105.94"/><polygon points="55.88 109.86 59.35 105.94 79.77 118.88 76.29 122.8 55.88 109.86"/><polygon points="101.8 39.16 122.21 52.1 109.68 54.87 89.27 41.93 101.8 39.16"/><polygon points="89.27 41.93 101.8 39.16 122.21 52.1 109.68 54.87 89.27 41.93"/><polygon points="102.83 36.05 123.24 48.99 123.89 49.59 103.48 36.65 102.83 36.05"/><polygon points="103.48 36.65 105.32 20.41 125.73 33.35 123.89 49.59 103.48 36.65"/><polygon points="81.64 71.96 84.42 47.4 104.83 60.34 102.05 84.9 81.64 71.96"/><polygon points="84.42 47.4 104.83 60.34 102.05 84.9 81.64 71.96 84.42 47.4"/><polygon points="43.65 132.42 64.06 145.36 60.34 146.18 39.92 133.24 43.65 132.42"/><polygon points="39.92 133.24 43.65 132.42 64.06 145.36 60.34 146.18 39.92 133.24"/><polygon points="43.05 129.67 46.46 128.91 66.87 141.85 63.46 142.61 43.05 129.67"/><polygon points="46.46 128.91 49.01 106.35 69.42 119.29 66.87 141.85 46.46 128.91"/><polygon points="78.36 79.54 98.78 92.48 81.4 96.33 60.99 83.39 78.36 79.54"/><polygon points="79.03 73.62 99.44 86.56 98.78 92.48 78.36 79.54 79.03 73.62"/><polygon points="86.79 66.57 88.68 49.87 109.09 62.81 107.2 79.51 86.79 66.57"/><polygon points="88.68 49.87 109.09 62.81 107.2 79.51 86.79 66.57 88.68 49.87"/><polygon points="60.55 108.57 80.96 121.51 78.89 123.84 58.48 110.9 60.55 108.57"/><polygon points="105.32 20.41 119.28 17.32 139.7 30.26 125.73 33.35 105.32 20.41"/><polygon points="116.16 20.9 136.57 33.84 128.19 35.7 107.78 22.75 116.16 20.9"/><polygon points="107.78 22.75 116.16 20.9 136.57 33.84 128.19 35.7 107.78 22.75"/><polygon points="101.96 43.78 122.37 56.73 112.57 58.89 92.16 45.95 101.96 43.78"/><polygon points="92.16 45.95 101.96 43.78 122.37 56.73 112.57 58.89 92.16 45.95"/><polygon points="43.11 137.19 43.65 132.42 64.06 145.36 63.52 150.13 43.11 137.19"/><polygon points="43.11 137.19 63.52 150.13 51.41 152.81 31 139.87 43.11 137.19"/><polygon points="31 139.87 43.11 137.19 63.52 150.13 51.41 152.81 31 139.87"/><polygon points="43.65 132.42 64.06 145.36 63.52 150.13 43.11 137.19 43.65 132.42"/><polygon points="45.96 133.36 46.46 128.91 66.87 141.85 66.37 146.3 45.96 133.36"/><polygon points="46.46 128.91 66.87 141.85 66.37 146.3 45.96 133.36 46.46 128.91"/><polygon points="100.93 46.9 121.34 59.84 113.77 61.52 93.36 48.57 100.93 46.9"/><polygon points="46.23 133.61 45.96 133.36 66.37 146.3 66.64 146.55 46.23 133.61"/><polygon points="45.96 133.36 66.37 146.3 66.64 146.55 46.23 133.61 45.96 133.36"/><polygon points="91.28 50.91 111.69 63.85 110.08 78.1 89.67 65.16 91.28 50.91"/><polygon points="115.61 25.68 116.16 20.9 136.57 33.84 136.03 38.62 115.61 25.68"/><polygon points="116.16 20.9 136.57 33.84 136.03 38.62 115.61 25.68 116.16 20.9"/><polygon points="105.53 42.62 101.8 39.16 122.21 52.1 125.94 55.56 105.53 42.62"/><polygon points="101.8 39.16 122.21 52.1 125.94 55.56 105.53 42.62 101.8 39.16"/><polygon points="105.53 42.62 107.78 22.75 128.19 35.7 125.94 55.56 105.53 42.62"/><polygon points="107.78 22.75 128.19 35.7 125.94 55.56 105.53 42.62 107.78 22.75"/><polygon points="115.61 25.68 136.03 38.62 132.3 39.44 111.89 26.5 115.61 25.68"/><polygon points="111.89 26.5 115.61 25.68 136.03 38.62 132.3 39.44 111.89 26.5"/><polygon points="48.84 131.95 51.62 107.39 72.03 120.33 69.25 144.89 48.84 131.95"/><polygon points="51.62 107.39 72.03 120.33 69.25 144.89 48.84 131.95 51.62 107.39"/><polygon points="102.19 48.07 100.93 46.9 121.34 59.84 122.6 61.01 102.19 48.07"/><polygon points="85.1 75.17 81.64 71.96 102.05 84.9 105.51 88.11 85.1 75.17"/><polygon points="81.64 71.96 102.05 84.9 105.51 88.11 85.1 75.17 81.64 71.96"/><polygon points="89.67 65.16 110.08 78.1 111.35 79.28 90.94 66.33 89.67 65.16"/><polygon points="84.06 78.28 79.03 73.62 99.44 86.56 104.47 91.22 84.06 78.28"/><polygon points="89.9 69.45 86.79 66.57 107.2 79.51 110.31 82.39 89.9 69.45"/><polygon points="86.79 66.57 107.2 79.51 110.31 82.39 89.9 69.45 86.79 66.57"/><polygon points="45.56 139.54 65.97 152.48 30.91 160.23 10.5 147.29 45.56 139.54"/><polygon points="46.23 133.61 66.64 146.55 65.97 152.48 45.56 139.54 46.23 133.61"/><polygon points="53.99 126.55 55.88 109.86 76.29 122.8 74.4 139.49 53.99 126.55"/><polygon points="55.88 109.86 76.29 122.8 74.4 139.49 53.99 126.55 55.88 109.86"/><polygon points="105.07 46.67 101.96 43.78 122.37 56.73 125.48 59.61 105.07 46.67"/><polygon points="101.96 43.78 122.37 56.73 125.48 59.61 105.07 46.67 101.96 43.78"/><polygon points="119.28 17.32 139.7 30.26 138.48 40.96 118.07 28.02 119.28 17.32"/><polygon points="100.58 62.32 102.19 48.07 122.6 61.01 120.99 75.26 100.58 62.32"/><polygon points="103.18 63.36 105.07 46.67 125.48 59.61 123.59 76.3 103.18 63.36"/><polygon points="105.07 46.67 125.48 59.61 123.59 76.3 103.18 63.36 105.07 46.67"/><polygon points="107.47 65.56 111.89 26.5 132.3 39.44 127.88 78.5 107.47 65.56"/><polygon points="111.89 26.5 132.3 39.44 127.88 78.5 107.47 65.56 111.89 26.5"/><polygon points="118.07 28.02 138.48 40.96 134.76 41.79 114.35 28.85 118.07 28.02"/><polygon points="55.26 99.3 76.23 94.67 96.65 107.61 75.67 112.24 55.26 99.3"/><polygon points="75.2 97.78 95.61 110.72 76.88 114.87 56.47 101.92 75.2 97.78"/><polygon points="56.47 101.92 75.2 97.78 95.61 110.72 76.88 114.87 56.47 101.92"/><polygon points="70.4 103.5 90.81 116.44 79.77 118.88 59.35 105.94 70.4 103.5"/><polygon points="59.35 105.94 70.4 103.5 90.81 116.44 79.77 118.88 59.35 105.94"/><polygon points="58.48 110.9 78.89 123.84 77.27 138.09 56.86 125.15 58.48 110.9"/><polygon points="69.36 106.62 89.77 119.56 80.96 121.51 60.55 108.57 69.36 106.62"/><polygon points="52.29 135.16 48.84 131.95 69.25 144.89 72.7 148.1 52.29 135.16"/><polygon points="48.84 131.95 69.25 144.89 72.7 148.1 52.29 135.16 48.84 131.95"/><polygon points="56.86 125.15 77.27 138.09 78.54 139.27 58.13 126.33 56.86 125.15"/><polygon points="51.26 138.27 46.23 133.61 66.64 146.55 71.67 151.21 51.26 138.27"/><polygon points="70.63 107.79 69.36 106.62 89.77 119.56 91.04 120.73 70.63 107.79"/><polygon points="57.1 129.44 53.99 126.55 74.4 139.49 77.51 142.38 57.1 129.44"/><polygon points="53.99 126.55 74.4 139.49 77.51 142.38 57.1 129.44 53.99 126.55"/><polygon points="90.94 66.33 98.51 64.66 118.92 77.6 111.35 79.28 90.94 66.33"/><polygon points="98.51 64.66 100.58 62.32 120.99 75.26 118.92 77.6 98.51 64.66"/><polygon points="73.5 106.39 70.4 103.5 90.81 116.44 93.92 119.33 73.5 106.39"/><polygon points="70.4 103.5 90.81 116.44 93.92 119.33 73.5 106.39 70.4 103.5"/><polygon points="99.7 67.28 120.11 80.22 110.31 82.39 89.9 69.45 99.7 67.28"/><polygon points="89.9 69.45 99.7 67.28 120.11 80.22 110.31 82.39 89.9 69.45"/><polygon points="78.66 100.99 75.2 97.78 95.61 110.72 99.07 113.93 78.66 100.99"/><polygon points="75.2 97.78 95.61 110.72 99.07 113.93 78.66 100.99 75.2 97.78"/><polygon points="114.35 28.85 134.76 41.79 131.01 74.93 110.6 61.99 114.35 28.85"/><polygon points="116.56 38.67 122.81 31.63 143.22 44.57 136.98 51.61 116.56 38.67"/><polygon points="103.18 63.36 123.59 76.3 120.11 80.22 99.7 67.28 103.18 63.36"/><polygon points="99.7 67.28 103.18 63.36 123.59 76.3 120.11 80.22 99.7 67.28"/><polygon points="97.63 72.39 118.04 85.33 105.51 88.11 85.1 75.17 97.63 72.39"/><polygon points="85.1 75.17 97.63 72.39 118.04 85.33 105.51 88.11 85.1 75.17"/><polygon points="76.23 94.67 96.65 107.61 101.67 112.27 81.26 99.33 76.23 94.67"/><polygon points="81.26 99.33 81.93 93.41 102.34 106.35 101.67 112.27 81.26 99.33"/><polygon points="102.82 66.54 123.23 79.48 118.04 85.33 97.63 72.39 102.82 66.54"/><polygon points="97.63 72.39 102.82 66.54 123.23 79.48 118.04 85.33 97.63 72.39"/><polygon points="124.01 34.25 144.42 47.19 139.57 52.66 119.16 39.72 124.01 34.25"/><polygon points="119.16 39.72 124.01 34.25 144.42 47.19 139.57 52.66 119.16 39.72"/><polygon points="58.13 126.33 66.94 124.38 87.35 137.32 78.54 139.27 58.13 126.33"/><polygon points="98.83 75.02 119.24 87.96 104.47 91.22 84.06 78.28 98.83 75.02"/><polygon points="66.94 124.38 69.02 122.04 89.43 134.98 87.35 137.32 66.94 124.38"/><polygon points="69.02 122.04 70.63 107.79 91.04 120.73 89.43 134.98 69.02 122.04"/><polygon points="99.18 74.61 119.59 87.55 119.24 87.96 98.83 75.02 99.18 74.61"/><polygon points="99.14 74.95 99.18 74.61 119.59 87.55 119.56 87.89 99.14 74.95"/><polygon points="71.61 123.08 73.5 106.39 93.92 119.33 92.03 136.03 71.61 123.08"/><polygon points="73.5 106.39 93.92 119.33 92.03 136.03 71.61 123.08 73.5 106.39"/><polygon points="75.88 125.55 78.66 100.99 99.07 113.93 96.29 138.5 75.88 125.55"/><polygon points="78.66 100.99 99.07 113.93 96.29 138.5 75.88 125.55 78.66 100.99"/><polygon points="80.72 104.11 81.26 99.33 101.67 112.27 101.13 117.05 80.72 104.11"/><polygon points="81.03 104.04 101.44 116.98 101.13 117.05 80.72 104.11 81.03 104.04"/><polygon points="81.26 99.33 101.67 112.27 101.13 117.05 80.72 104.11 81.26 99.33"/><polygon points="80.72 104.11 81.03 104.04 101.44 116.98 101.13 117.05 80.72 104.11"/><polygon points="102.28 71.37 102.82 66.54 123.23 79.48 122.69 84.31 102.28 71.37"/><polygon points="102.82 66.54 123.23 79.48 122.69 84.31 102.28 71.37 102.82 66.54"/><polygon points="83.85 100.53 84.39 95.75 104.8 108.69 104.26 113.47 83.85 100.53"/><polygon points="84.39 95.75 104.8 108.69 104.26 113.47 83.85 100.53 84.39 95.75"/><polygon points="68.14 127 88.55 139.94 77.51 142.38 57.1 129.44 68.14 127"/><polygon points="57.1 129.44 68.14 127 88.55 139.94 77.51 142.38 57.1 129.44"/><polygon points="71.61 123.08 92.03 136.03 88.55 139.94 68.14 127 71.61 123.08"/><polygon points="68.14 127 71.61 123.08 92.03 136.03 88.55 139.94 68.14 127"/><polygon points="84.44 103.28 104.86 116.22 101.44 116.98 81.03 104.04 84.44 103.28"/><polygon points="87.57 99.7 107.98 112.64 104.26 113.47 83.85 100.53 87.57 99.7"/><polygon points="83.85 100.53 87.57 99.7 107.98 112.64 104.26 113.47 83.85 100.53"/><polygon points="126.9 38.26 147.31 51.2 143.84 55.13 123.43 42.19 126.9 38.26"/><polygon points="123.43 42.19 126.9 38.26 147.31 51.2 143.84 55.13 123.43 42.19"/><polygon points="111.19 64.74 131.6 77.69 127.88 78.5 107.47 65.56 111.19 64.74"/><polygon points="107.47 65.56 111.19 64.74 131.6 77.69 127.88 78.5 107.47 65.56"/><polygon points="81.93 93.41 95.9 90.32 116.31 103.26 102.34 106.35 81.93 93.41"/><polygon points="92.77 93.9 113.18 106.84 104.8 108.69 84.39 95.75 92.77 93.9"/><polygon points="84.39 95.75 92.77 93.9 113.18 106.84 104.8 108.69 84.39 95.75"/><polygon points="110.6 61.99 114.01 61.23 134.42 74.17 131.01 74.93 110.6 61.99"/><polygon points="114.01 61.23 116.56 38.67 136.98 51.61 134.42 74.17 114.01 61.23"/><polygon points="95.9 90.32 116.31 103.26 116.27 103.59 95.86 90.65 95.9 90.32"/><polygon points="95.86 90.65 96.25 90.24 116.66 103.18 116.27 103.59 95.86 90.65"/><polygon points="128.1 40.89 148.51 53.83 146.44 56.17 126.03 43.23 128.1 40.89"/><polygon points="71.03 131.01 91.44 143.95 72.7 148.1 52.29 135.16 71.03 131.01"/><polygon points="52.29 135.16 71.03 131.01 91.44 143.95 72.7 148.1 52.29 135.16"/><polygon points="92.28 98.2 92.77 93.9 113.18 106.84 112.69 111.14 92.28 98.2"/><polygon points="92.77 93.9 113.18 106.84 112.69 111.14 92.28 98.2 92.77 93.9"/><polygon points="110.65 69.52 131.06 82.46 122.69 84.31 102.28 71.37 110.65 69.52"/><polygon points="102.28 71.37 110.65 69.52 131.06 82.46 122.69 84.31 102.28 71.37"/><polygon points="110.65 69.52 111.19 64.74 131.6 77.69 131.06 82.46 110.65 69.52"/><polygon points="111.19 64.74 131.6 77.69 131.06 82.46 110.65 69.52 111.19 64.74"/><polygon points="113.51 65.68 114.01 61.23 134.42 74.17 133.92 78.62 113.51 65.68"/><polygon points="114.01 61.23 134.42 74.17 133.92 78.62 113.51 65.68 114.01 61.23"/><polygon points="75.88 125.55 96.29 138.5 91.44 143.95 71.03 131.01 75.88 125.55"/><polygon points="71.03 131.01 75.88 125.55 96.29 138.5 91.44 143.95 71.03 131.01"/><polygon points="122.81 31.63 137.58 28.36 157.99 41.3 143.22 44.57 122.81 31.63"/><polygon points="113.78 65.94 113.51 65.68 133.92 78.62 134.19 78.88 113.78 65.94"/><polygon points="113.51 65.68 133.92 78.62 134.19 78.88 113.78 65.94 113.51 65.68"/><polygon points="79.03 121.7 99.44 134.64 99.13 134.71 78.72 121.77 79.03 121.7"/><polygon points="78.72 121.77 79.03 121.7 99.44 134.64 99.13 134.71 78.72 121.77"/><polygon points="81.03 104.04 101.44 116.98 99.44 134.64 79.03 121.7 81.03 104.04"/><polygon points="97.38 92.88 117.79 105.82 112.69 111.14 92.28 98.2 97.38 92.88"/><polygon points="92.28 98.2 97.38 92.88 117.79 105.82 112.69 111.14 92.28 98.2"/><polygon points="136.55 31.47 156.96 44.41 144.42 47.19 124.01 34.25 136.55 31.47"/><polygon points="124.01 34.25 136.55 31.47 156.96 44.41 144.42 47.19 124.01 34.25"/><polygon points="137.58 28.36 157.99 41.3 158.64 41.9 138.23 28.96 137.58 28.36"/><polygon points="138.23 28.96 140.07 12.72 160.48 25.66 158.64 41.9 138.23 28.96"/><polygon points="72.23 133.64 92.64 146.58 71.67 151.21 51.26 138.27 72.23 133.64"/><polygon points="116.38 64.27 119.16 39.72 139.57 52.66 136.79 77.22 116.38 64.27"/><polygon points="119.16 39.72 139.57 52.66 136.79 77.22 116.38 64.27 119.16 39.72"/><polygon points="79.03 121.7 82.44 120.95 102.86 133.89 99.44 134.64 79.03 121.7"/><polygon points="82.44 120.95 84.44 103.28 104.86 116.22 102.86 133.89 82.44 120.95"/><polygon points="84.9 123.29 87.57 99.7 107.98 112.64 105.31 136.23 84.9 123.29"/><polygon points="87.57 99.7 107.98 112.64 105.31 136.23 84.9 123.29 87.57 99.7"/><polygon points="96.58 97.71 116.99 110.65 112.12 116.14 91.71 103.19 96.58 97.71"/><polygon points="91.71 103.19 96.58 97.71 116.99 110.65 112.12 116.14 91.71 103.19"/><polygon points="78.13 126.98 78.72 121.77 99.13 134.71 98.54 139.92 78.13 126.98"/><polygon points="78.72 121.77 99.13 134.71 98.54 139.92 78.13 126.98 78.72 121.77"/><polygon points="78.13 126.98 98.54 139.92 92.64 146.58 72.23 133.64 78.13 126.98"/><polygon points="113.78 65.94 134.19 78.88 133.52 84.81 113.11 71.86 113.78 65.94"/><polygon points="113.11 71.86 133.52 84.81 119.56 87.89 99.14 74.95 113.11 71.86"/><polygon points="121.54 58.88 123.43 42.19 143.84 55.13 141.95 71.83 121.54 58.88"/><polygon points="123.43 42.19 143.84 55.13 141.95 71.83 121.54 58.88 123.43 42.19"/><polygon points="140.07 12.72 154.02 9.64 174.43 22.58 160.48 25.66 140.07 12.72"/><polygon points="150.9 13.22 171.31 26.16 162.94 28.01 142.53 15.07 150.9 13.22"/><polygon points="142.53 15.07 150.9 13.22 171.31 26.16 162.94 28.01 142.53 15.07"/><polygon points="136.7 36.1 157.11 49.04 147.31 51.2 126.9 38.26 136.7 36.1"/><polygon points="126.9 38.26 136.7 36.1 157.11 49.04 147.31 51.2 126.9 38.26"/><polygon points="135.67 39.21 156.08 52.15 148.51 53.83 128.1 40.89 135.67 39.21"/><polygon points="126.03 43.23 146.44 56.17 144.82 70.42 124.41 57.48 126.03 43.23"/><polygon points="97.77 100.33 118.18 113.28 114.73 117.17 94.32 104.23 97.77 100.33"/><polygon points="77.51 132.47 78.13 126.98 98.54 139.92 97.92 145.41 77.51 132.47"/><polygon points="140.28 34.93 136.55 31.47 156.96 44.41 160.69 47.88 140.28 34.93"/><polygon points="136.55 31.47 156.96 44.41 160.69 47.88 140.28 34.93 136.55 31.47"/><polygon points="140.28 34.93 142.53 15.07 162.94 28.01 160.69 47.88 140.28 34.93"/><polygon points="142.53 15.07 162.94 28.01 160.69 47.88 140.28 34.93 142.53 15.07"/><polygon points="150.36 17.99 170.77 30.93 167.05 31.76 146.64 18.82 150.36 17.99"/><polygon points="146.64 18.82 150.36 17.99 170.77 30.93 167.05 31.76 146.64 18.82"/><polygon points="150.36 17.99 150.9 13.22 171.31 26.16 170.77 30.93 150.36 17.99"/><polygon points="150.9 13.22 171.31 26.16 170.77 30.93 150.36 17.99 150.9 13.22"/><polygon points="80.64 128.89 81.18 124.12 101.59 137.06 101.05 141.83 80.64 128.89"/><polygon points="81.18 124.12 101.59 137.06 101.05 141.83 80.64 128.89 81.18 124.12"/><polygon points="136.93 40.38 135.67 39.21 156.08 52.15 157.34 53.33 136.93 40.38"/><polygon points="119.84 67.48 116.38 64.27 136.79 77.22 140.25 80.42 119.84 67.48"/><polygon points="116.38 64.27 136.79 77.22 140.25 80.42 119.84 67.48 116.38 64.27"/><polygon points="124.41 57.48 144.82 70.42 146.09 71.59 125.68 58.65 124.41 57.48"/><polygon points="84.9 123.29 105.31 136.23 101.59 137.06 81.18 124.12 84.9 123.29"/><polygon points="81.18 124.12 84.9 123.29 105.31 136.23 101.59 137.06 81.18 124.12"/><polygon points="118.81 70.6 113.78 65.94 134.19 78.88 139.22 83.54 118.81 70.6"/><polygon points="124.64 61.76 121.54 58.88 141.95 71.83 145.06 74.7 124.64 61.76"/><polygon points="121.54 58.88 141.95 71.83 145.06 74.7 124.64 61.76 121.54 58.88"/><polygon points="119.63 70.42 119.68 69.97 140.09 82.91 140.04 83.36 119.63 70.42"/><polygon points="119.68 69.97 140.09 82.91 140.04 83.36 119.63 70.42 119.68 69.97"/><polygon points="119.63 70.42 140.04 83.36 139.22 83.54 118.81 70.6 119.63 70.42"/><polygon points="139.82 38.98 136.7 36.1 157.11 49.04 160.23 51.93 139.82 38.98"/><polygon points="136.7 36.1 157.11 49.04 160.23 51.93 139.82 38.98 136.7 36.1"/><polygon points="154.02 9.64 174.43 22.58 173.22 33.28 152.81 20.34 154.02 9.64"/><polygon points="135.32 54.64 136.93 40.38 157.34 53.33 155.73 67.58 135.32 54.64"/><polygon points="137.93 55.68 139.82 38.98 160.23 51.93 158.34 68.62 137.93 55.68"/><polygon points="139.82 38.98 160.23 51.93 158.34 68.62 137.93 55.68 139.82 38.98"/><polygon points="142.21 57.88 146.64 18.82 167.05 31.76 162.62 70.82 142.21 57.88"/><polygon points="146.64 18.82 167.05 31.76 162.62 70.82 142.21 57.88 146.64 18.82"/><polygon points="152.81 20.34 173.22 33.28 169.51 34.1 149.09 21.16 152.81 20.34"/><polygon points="89.55 122.27 91.71 103.19 112.12 116.14 109.97 135.21 89.55 122.27"/><polygon points="91.71 103.19 112.12 116.14 109.97 135.21 89.55 122.27 91.71 103.19"/><polygon points="94.32 104.23 114.73 117.17 113.09 131.63 92.68 118.69 94.32 104.23"/><polygon points="114.5 86.2 134.91 99.14 134.61 99.21 114.2 86.27 114.5 86.2"/><polygon points="114.2 86.27 114.5 86.2 134.91 99.14 134.61 99.21 114.2 86.27"/><polygon points="96.25 90.24 114.5 86.2 134.91 99.14 116.66 103.18 96.25 90.24"/><polygon points="111.38 89.78 131.79 102.72 117.79 105.82 97.38 92.88 111.38 89.78"/><polygon points="97.38 92.88 111.38 89.78 131.79 102.72 117.79 105.82 97.38 92.88"/><polygon points="125.68 58.65 133.25 56.97 153.66 69.91 146.09 71.59 125.68 58.65"/><polygon points="118.47 80.67 119.63 70.42 140.04 83.36 138.88 93.61 118.47 80.67"/><polygon points="133.25 56.97 135.32 54.64 155.73 67.58 153.66 69.91 133.25 56.97"/><polygon points="93.28 121.44 113.69 134.38 109.97 135.21 89.55 122.27 93.28 121.44"/><polygon points="89.55 122.27 93.28 121.44 113.69 134.38 109.97 135.21 89.55 122.27"/><polygon points="121.59 77.1 122.13 72.32 142.54 85.26 142 90.04 121.59 77.1"/><polygon points="122.13 72.32 142.54 85.26 142 90.04 121.59 77.1 122.13 72.32"/><polygon points="110.84 94.55 131.25 107.49 116.99 110.65 96.58 97.71 110.84 94.55"/><polygon points="96.58 97.71 110.84 94.55 131.25 107.49 116.99 110.65 96.58 97.71"/><polygon points="110.84 94.55 111.38 89.78 131.79 102.72 131.25 107.49 110.84 94.55"/><polygon points="111.38 89.78 131.79 102.72 131.25 107.49 110.84 94.55 111.38 89.78"/><polygon points="92.68 118.69 96.41 117.86 116.82 130.8 113.09 131.63 92.68 118.69"/><polygon points="134.45 59.6 154.86 72.54 145.06 74.7 124.64 61.76 134.45 59.6"/><polygon points="124.64 61.76 134.45 59.6 154.86 72.54 145.06 74.7 124.64 61.76"/><polygon points="149.09 21.16 169.51 34.1 165.75 67.24 145.34 54.3 149.09 21.16"/><polygon points="151.31 30.99 157.56 23.95 177.97 36.89 171.72 43.93 151.31 30.99"/><polygon points="92.74 126.21 113.15 139.16 101.05 141.83 80.64 128.89 92.74 126.21"/><polygon points="80.64 128.89 92.74 126.21 113.15 139.16 101.05 141.83 80.64 128.89"/><polygon points="92.74 126.21 93.28 121.44 113.69 134.38 113.15 139.16 92.74 126.21"/><polygon points="93.28 121.44 113.69 134.38 113.15 139.16 92.74 126.21 93.28 121.44"/><polygon points="122.19 79.85 142.6 92.79 138.88 93.61 118.47 80.67 122.19 79.85"/><polygon points="137.93 55.68 158.34 68.62 154.86 72.54 134.45 59.6 137.93 55.68"/><polygon points="134.45 59.6 137.93 55.68 158.34 68.62 154.86 72.54 134.45 59.6"/><polygon points="132.38 64.71 152.79 77.65 140.25 80.42 119.84 67.48 132.38 64.71"/><polygon points="119.84 67.48 132.38 64.71 152.79 77.65 140.25 80.42 119.84 67.48"/><polygon points="125.31 76.27 145.72 89.21 142 90.04 121.59 77.1 125.31 76.27"/><polygon points="121.59 77.1 125.31 76.27 145.72 89.21 142 90.04 121.59 77.1"/><polygon points="112.99 96.97 114.2 86.27 134.61 99.21 133.4 109.91 112.99 96.97"/><polygon points="114.2 86.27 134.61 99.21 133.4 109.91 112.99 96.97 114.2 86.27"/><polygon points="112.99 96.97 133.4 109.91 118.18 113.28 97.77 100.33 112.99 96.97"/><polygon points="137.57 58.86 157.98 71.8 152.79 77.65 132.38 64.71 137.57 58.86"/><polygon points="132.38 64.71 137.57 58.86 157.98 71.8 152.79 77.65 132.38 64.71"/><polygon points="133.63 66.89 154.04 79.83 140.09 82.91 119.68 69.97 133.63 66.89"/><polygon points="133.58 67.32 133.63 66.89 154.04 79.83 153.99 80.27 133.58 67.32"/><polygon points="133.89 67.27 133.93 66.93 154.34 79.87 154.3 80.21 133.89 67.27"/><polygon points="137.02 63.68 137.57 58.86 157.98 71.8 157.43 76.62 137.02 63.68"/><polygon points="137.57 58.86 157.98 71.8 157.43 76.62 137.02 63.68 137.57 58.86"/><polygon points="145.4 61.83 165.81 74.77 157.43 76.62 137.02 63.68 145.4 61.83"/><polygon points="137.02 63.68 145.4 61.83 165.81 74.77 157.43 76.62 137.02 63.68"/><polygon points="144.44 64.93 164.85 77.87 154.3 80.21 133.89 67.27 144.44 64.93"/><polygon points="133.89 67.27 133.91 67.07 133.63 66.89 133.58 67.32 153.99 80.27 154.02 80.03 133.89 67.27"/><polygon points="133.89 67.27 133.93 66.93 133.58 67.32 153.99 80.27 154.14 80.1 133.89 67.27"/><polygon points="133.58 67.32 133.63 66.89 119.68 69.97 140.09 82.91 153.5 79.95 133.58 67.32"/><polygon points="130.5 70.46 150.91 83.41 142.54 85.26 122.13 72.32 130.5 70.46"/><polygon points="122.13 72.32 130.5 70.46 150.91 83.41 142.54 85.26 122.13 72.32"/><polygon points="121.65 84.63 122.19 79.85 142.6 92.79 142.06 97.57 121.65 84.63"/><polygon points="114.5 86.2 121.65 84.63 142.06 97.57 134.91 99.14 114.5 86.2"/><polygon points="116.11 93.39 116.65 88.62 137.06 101.56 136.52 106.33 116.11 93.39"/><polygon points="116.65 88.62 137.06 101.56 136.52 106.33 116.11 93.39 116.65 88.62"/><polygon points="158.75 26.56 179.16 39.5 174.32 44.97 153.91 32.03 158.75 26.56"/><polygon points="153.91 32.03 158.75 26.56 179.16 39.5 174.32 44.97 153.91 32.03"/><polygon points="95.19 128.56 115.61 141.5 97.92 145.41 77.51 132.47 95.19 128.56"/><polygon points="96.41 117.86 116.82 130.8 115.61 141.5 95.19 128.56 96.41 117.86"/><polygon points="124.1 86.96 125.31 76.27 145.72 89.21 144.51 99.91 124.1 86.96"/><polygon points="125.31 76.27 145.72 89.21 144.51 99.91 124.1 86.96 125.31 76.27"/><polygon points="124.1 86.96 144.51 99.91 137.06 101.56 116.65 88.62 124.1 86.96"/><polygon points="116.65 88.62 124.1 86.96 144.51 99.91 137.06 101.56 116.65 88.62"/><polygon points="123.56 91.75 143.97 104.69 136.52 106.33 116.11 93.39 123.56 91.75"/><polygon points="118.22 114.87 120.44 95.32 140.85 108.26 138.63 127.81 118.22 114.87"/><polygon points="121.1 113.46 123.56 91.75 143.97 104.69 141.51 126.4 121.1 113.46"/><polygon points="120.44 95.32 137.47 106.12 143.97 104.69 123.56 91.75 116.11 93.39 120.35 96.08 120.44 95.32"/><polygon points="120.44 95.32 112.99 96.97 119.76 101.26 120.44 95.32"/><polygon points="161.64 30.58 182.05 43.52 178.58 47.44 158.17 34.5 161.64 30.58"/><polygon points="158.17 34.5 161.64 30.58 182.05 43.52 178.58 47.44 158.17 34.5"/><polygon points="145.94 57.06 166.35 70 162.62 70.82 142.21 57.88 145.94 57.06"/><polygon points="142.21 57.88 145.94 57.06 166.35 70 162.62 70.82 142.21 57.88"/><polygon points="148.76 53.54 151.31 30.99 171.72 43.93 169.17 66.48 148.76 53.54"/><polygon points="145.34 54.3 148.76 53.54 169.17 66.48 165.75 67.24 145.34 54.3"/><polygon points="128.75 85.94 130.5 70.46 150.91 83.41 149.16 98.88 128.75 85.94"/><polygon points="130.5 70.46 150.91 83.41 149.16 98.88 128.75 85.94 130.5 70.46"/><polygon points="148.25 58 148.76 53.54 169.17 66.48 168.66 70.94 148.25 58"/><polygon points="148.76 53.54 169.17 66.48 168.66 70.94 148.25 58 148.76 53.54"/><polygon points="151.13 56.59 153.91 32.03 174.32 44.97 171.54 69.53 151.13 56.59"/><polygon points="153.91 32.03 174.32 44.97 171.54 69.53 151.13 56.59 153.91 32.03"/><polygon points="157.47 40.68 158.17 34.5 178.58 47.44 177.88 53.62 157.47 40.68"/><polygon points="158.17 34.5 178.58 47.44 177.88 53.62 157.47 40.68 158.17 34.5"/><polygon points="162.84 33.2 183.25 46.15 181.18 48.48 160.77 35.54 162.84 33.2"/><polygon points="133.58 67.32 153.99 80.27 152.29 95.3 131.88 82.36 133.58 67.32"/><polygon points="160.77 35.54 181.18 48.48 181 50.04 160.59 37.1 160.77 35.54"/><polygon points="145.4 61.83 145.94 57.06 166.35 70 165.81 74.77 145.4 61.83"/><polygon points="145.94 57.06 166.35 70 165.81 74.77 145.4 61.83 145.94 57.06"/><polygon points="148.52 58.24 148.25 58 168.66 70.94 168.93 71.19 148.52 58.24"/><polygon points="148.25 58 168.66 70.94 168.93 71.19 148.52 58.24 148.25 58"/><polygon points="144.44 64.93 144.49 64.48 164.9 77.42 164.85 77.87 144.44 64.93"/><polygon points="144.49 64.48 164.9 77.42 164.85 77.87 144.44 64.93 144.49 64.48"/><polygon points="147.9 63.73 168.31 76.67 164.9 77.42 144.49 64.48 147.9 63.73"/><polygon points="148.52 58.24 168.93 71.19 168.31 76.67 147.9 63.73 148.52 58.24"/><polygon points="144.49 64.48 147.9 63.73 168.31 76.67 164.9 77.42 144.49 64.48"/><polygon points="156.28 51.2 156.93 45.45 177.34 58.39 176.69 64.14 156.28 51.2"/><polygon points="156.93 45.45 177.34 58.39 176.69 64.14 156.28 51.2 156.93 45.45"/><polygon points="131.88 82.36 139.32 80.71 159.74 93.65 152.29 95.3 131.88 82.36"/><polygon points="136.19 84.3 156.61 97.24 149.16 98.88 128.75 85.94 136.19 84.3"/><polygon points="128.75 85.94 136.19 84.3 156.61 97.24 149.16 98.88 128.75 85.94"/><polygon points="157.56 23.95 178.52 19.3 198.93 32.24 177.97 36.89 157.56 23.95"/><polygon points="177.49 22.43 197.9 35.37 179.16 39.5 158.75 26.56 177.49 22.43"/><polygon points="158.75 26.56 177.49 22.43 197.9 35.37 179.16 39.5 158.75 26.56"/><polygon points="172.69 28.14 193.1 41.08 182.05 43.52 161.64 30.58 172.69 28.14"/><polygon points="161.64 30.58 172.69 28.14 193.1 41.08 182.05 43.52 161.64 30.58"/><polygon points="159.38 47.8 179.79 60.74 179.57 62.73 159.16 49.79 159.38 47.8"/><polygon points="143.28 75.19 144.44 64.93 164.85 77.87 163.69 88.13 143.28 75.19"/><polygon points="171.66 31.26 192.07 44.2 183.25 46.15 162.84 33.2 171.66 31.26"/><polygon points="146.4 71.6 146.94 66.83 167.35 79.77 166.81 84.54 146.4 71.6"/><polygon points="146.94 66.83 167.35 79.77 166.81 84.54 146.4 71.6 146.94 66.83"/><polygon points="135.66 89.07 156.07 102.01 148.62 103.65 128.21 90.71 135.66 89.07"/><polygon points="128.21 90.71 135.66 89.07 156.07 102.01 148.62 103.65 128.21 90.71"/><polygon points="135.66 89.07 136.19 84.3 156.61 97.24 156.07 102.01 135.66 89.07"/><polygon points="136.19 84.3 156.61 97.24 156.07 102.01 135.66 89.07 136.19 84.3"/><polygon points="154.58 59.8 151.13 56.59 171.54 69.53 174.99 72.74 154.58 59.8"/><polygon points="151.13 56.59 171.54 69.53 174.99 72.74 154.58 59.8 151.13 56.59"/><polygon points="159.16 49.79 179.57 62.73 180.84 63.91 160.43 50.97 159.16 49.79"/><polygon points="153.17 62.56 148.52 58.24 168.93 71.19 173.58 75.5 153.17 62.56"/><polygon points="147.9 63.73 153.17 62.56 173.58 75.5 168.31 76.67 147.9 63.73"/><polygon points="123.56 91.75 143.97 104.69 141.51 126.4 121.1 113.46 123.56 91.75"/><polygon points="172.92 32.43 171.66 31.26 192.07 44.2 193.33 45.37 172.92 32.43"/><polygon points="159.39 54.09 156.28 51.2 176.69 64.14 179.8 67.03 159.39 54.09"/><polygon points="156.28 51.2 176.69 64.14 179.8 67.03 159.39 54.09 156.28 51.2"/><polygon points="147 74.36 167.41 87.3 163.69 88.13 143.28 75.19 147 74.36"/><polygon points="160.59 37.1 172.69 34.42 193.1 47.36 181 50.04 160.59 37.1"/><polygon points="172.69 34.42 172.92 32.43 193.33 45.37 193.1 47.36 172.69 34.42"/><polygon points="150.12 70.79 170.53 83.73 166.81 84.54 146.4 71.6 150.12 70.79"/><polygon points="139.32 80.71 159.74 93.65 158.53 104.35 138.12 91.41 139.32 80.71"/><polygon points="125.54 114.3 128.21 90.71 148.62 103.65 145.95 127.25 125.54 114.3"/><polygon points="128.21 90.71 148.62 103.65 145.95 127.25 125.54 114.31 128.21 90.71"/><polygon points="138.12 91.41 158.53 104.35 151.08 106 130.67 93.06 138.12 91.41"/><polygon points="130.67 93.06 151.08 106 149.08 123.66 128.67 110.72 130.67 93.06"/><polygon points="143.25 107.5 147 74.36 167.41 87.3 163.66 120.44 143.25 107.5"/><polygon points="139.84 108.25 143.25 107.5 163.66 120.44 160.25 121.2 139.84 108.25"/><polygon points="145.7 109.84 150.12 70.79 170.53 83.73 166.11 122.79 145.7 109.84"/><polygon points="146.4 71.6 150.12 70.79 170.53 83.73 166.81 84.54 146.4 71.6"/><polygon points="175.8 31.02 172.69 28.14 193.1 41.08 196.21 43.96 175.8 31.02"/><polygon points="172.69 28.14 193.1 41.08 196.21 43.96 175.8 31.02 172.69 28.14"/><polygon points="155.32 64.98 175.74 77.92 167.35 79.77 146.94 66.83 155.32 64.98"/><polygon points="146.94 66.83 155.32 64.98 175.74 77.92 167.35 79.77 146.94 66.83"/><polygon points="180.95 25.62 177.49 22.43 197.9 35.37 201.36 38.56 180.95 25.62"/><polygon points="177.49 22.43 197.9 35.37 201.36 38.56 180.95 25.62 177.49 22.43"/><polygon points="175.15 36.77 195.56 49.71 177.88 53.62 157.47 40.68 175.15 36.77"/><polygon points="157.47 40.68 175.15 36.77 195.56 49.71 177.88 53.62 157.47 40.68"/><polygon points="179.26 40.52 199.67 53.46 177.34 58.39 156.93 45.45 179.26 40.52"/><polygon points="156.93 45.45 179.26 40.52 199.67 53.46 177.34 58.39 156.93 45.45"/><polygon points="181.72 42.85 202.13 55.8 179.79 60.74 159.38 47.8 181.72 42.85"/><polygon points="160.43 50.97 169.24 49.02 189.65 61.96 180.84 63.91 160.43 50.97"/><polygon points="170.43 51.64 190.84 64.58 179.8 67.03 159.39 54.09 170.43 51.64"/><polygon points="159.39 54.09 170.43 51.64 190.84 64.58 179.8 67.03 159.39 54.09"/><polygon points="173.32 55.65 193.73 68.59 174.99 72.74 154.58 59.8 173.32 55.65"/><polygon points="154.58 59.8 173.32 55.65 193.73 68.59 174.99 72.74 154.58 59.8"/><polygon points="158.45 61.4 178.86 74.34 173.58 75.5 153.17 62.56 158.45 61.4"/><polygon points="158.4 61.85 158.45 61.4 178.86 74.34 178.81 74.79 158.4 61.85"/><polygon points="174.52 58.28 194.93 71.22 178.81 74.79 158.4 61.85 174.52 58.28"/><polygon points="153.17 62.56 158.45 61.4 178.86 74.34 173.58 75.5 153.17 62.56"/><polygon points="158.45 61.4 178.86 74.34 178.81 74.79 158.4 61.85 158.45 61.4"/><polygon points="175.15 36.77 175.8 31.02 196.21 43.96 195.56 49.71 175.15 36.77"/><polygon points="175.8 31.02 196.21 43.96 195.56 49.71 175.15 36.77 175.8 31.02"/><polygon points="178.52 19.3 198.93 32.24 203.97 36.91 183.56 23.97 178.52 19.3"/><polygon points="183.56 23.97 184.23 18.04 204.64 30.98 203.97 36.91 183.56 23.97"/><polygon points="169.24 49.02 172.01 45.89 192.42 58.83 189.65 61.96 169.24 49.02"/><polygon points="179.26 40.52 180.95 25.62 201.36 38.56 199.67 53.46 179.26 40.52"/><polygon points="180.95 25.62 201.36 38.56 199.67 53.46 179.26 40.52 180.95 25.62"/><polygon points="183.02 28.75 183.56 23.97 203.97 36.91 203.43 41.69 183.02 28.75"/><polygon points="183.33 28.68 203.74 41.62 203.43 41.69 183.02 28.75 183.33 28.68"/><polygon points="183.56 23.97 203.97 36.91 203.43 41.69 183.02 28.75 183.56 23.97"/><polygon points="183.02 28.75 183.33 28.68 203.74 41.62 203.43 41.69 183.02 28.75"/><polygon points="126.75 118.69 121.1 113.46 141.51 126.4 147.16 131.64 126.75 118.69"/><polygon points="139.84 108.25 160.25 121.19 159.94 121.26 139.53 108.32 139.84 108.25"/><polygon points="139.53 108.32 139.84 108.25 160.25 121.2 159.94 121.26 139.53 108.32"/><polygon points="128.67 110.72 139.84 108.25 160.25 121.19 149.08 123.66 128.67 110.72"/><polygon points="136.71 111.84 157.12 124.78 145.95 127.25 125.54 114.3 136.71 111.84"/><polygon points="125.54 114.31 136.71 111.84 157.12 124.78 145.95 127.25 125.54 114.31"/><polygon points="136.17 116.61 156.58 129.55 147.16 131.64 126.75 118.69 136.17 116.61"/><polygon points="121.1 113.46 141.51 126.4 147.16 131.64 126.75 118.69 121.1 113.46"/><polygon points="186.14 25.16 186.68 20.39 207.09 33.33 206.55 38.1 186.14 25.16"/><polygon points="186.68 20.39 207.09 33.33 206.55 38.1 186.14 25.16 186.68 20.39"/><polygon points="125.71 121.81 118.22 114.87 138.63 127.81 146.12 134.75 125.71 121.81"/><polygon points="173.21 48.51 193.62 61.45 190.84 64.58 170.43 51.64 173.21 48.51"/><polygon points="170.43 51.64 173.21 48.51 193.62 61.45 190.84 64.58 170.43 51.64"/><polygon points="186.74 27.92 207.15 40.86 203.74 41.62 183.33 28.68 186.74 27.92"/><polygon points="189.86 24.34 210.27 37.28 206.55 38.1 186.14 25.16 189.86 24.34"/><polygon points="183.33 28.68 203.74 41.62 202.13 55.8 181.72 42.85 183.33 28.68"/><polygon points="172.01 45.89 181.62 43.77 202.03 56.71 192.42 58.83 172.01 45.89"/><polygon points="181.62 43.77 202.03 56.71 201.74 59.28 181.33 46.34 181.62 43.77"/><polygon points="181.33 46.34 184.74 45.58 205.15 58.52 201.74 59.28 181.33 46.34"/><polygon points="184.74 45.58 186.74 27.92 207.15 40.86 205.15 58.52 184.74 45.58"/><polygon points="187.19 47.93 189.86 24.34 210.27 37.28 207.6 60.87 187.19 47.93"/><polygon points="186.14 25.16 189.86 24.34 210.27 37.28 206.55 38.1 186.14 25.16"/><polygon points="184.23 18.04 198.18 14.96 218.59 27.9 204.64 30.98 184.23 18.04"/><polygon points="195.06 18.54 215.47 31.48 207.09 33.33 186.68 20.39 195.06 18.54"/><polygon points="186.68 20.39 195.06 18.54 215.47 31.48 207.09 33.33 186.68 20.39"/><polygon points="198.18 14.96 218.59 27.9 218.56 28.23 198.15 15.29 198.18 14.96"/><polygon points="198.15 15.29 198.53 14.88 218.95 27.82 218.56 28.23 198.15 15.29"/><polygon points="178.49 47.34 198.9 60.28 193.62 61.45 173.21 48.51 178.49 47.34"/><polygon points="173.21 48.51 178.49 47.34 198.9 60.28 193.62 61.45 173.21 48.51"/><polygon points="194.57 22.85 195.06 18.54 215.47 31.48 214.99 35.79 194.57 22.85"/><polygon points="195.06 18.54 215.47 31.48 214.99 35.79 194.57 22.85 195.06 18.54"/><polygon points="178.17 50.19 198.58 63.13 193.73 68.59 173.32 55.65 178.17 50.19"/><polygon points="173.32 55.65 178.17 50.19 198.58 63.13 193.73 68.59 173.32 55.65"/><polygon points="178.17 50.19 178.49 47.34 198.9 60.28 198.58 63.13 178.17 50.19"/><polygon points="178.49 47.34 198.9 60.28 198.58 63.13 178.17 50.19 178.49 47.34"/><polygon points="126.75 118.69 136.17 116.61 156.58 129.55 147.16 131.64 126.75 118.69"/><polygon points="136.17 116.61 136.71 111.84 157.12 124.78 156.58 129.55 136.17 116.61"/><polygon points="136.71 111.84 157.12 124.78 156.58 129.55 136.17 116.61 136.71 111.84"/><polygon points="181.33 46.34 201.74 59.28 201.43 59.35 181.02 46.41 181.33 46.34"/><polygon points="181.02 46.41 181.33 46.34 201.74 59.28 201.43 59.35 181.02 46.41"/><polygon points="199.67 17.51 220.08 30.45 214.99 35.79 194.57 22.85 199.67 17.51"/><polygon points="194.57 22.85 199.67 17.51 220.08 30.45 214.99 35.79 194.57 22.85"/><polygon points="189.86 24.34 210.27 37.28 207.6 60.87 187.19 47.93 189.86 24.34"/><polygon points="198.87 22.35 219.28 35.29 214.42 40.77 194.01 27.83 198.87 22.35"/><polygon points="194.01 27.83 198.87 22.35 219.28 35.29 214.42 40.77 194.01 27.83"/><polygon points="180.43 51.62 200.84 64.56 194.93 71.22 174.52 58.28 180.43 51.62"/><polygon points="180.43 51.62 181.02 46.41 201.43 59.35 200.84 64.56 180.43 51.62"/><polygon points="181.02 46.41 201.43 59.35 200.84 64.56 180.43 51.62 181.02 46.41"/><polygon points="150.12 70.79 170.53 83.73 166.11 122.79 145.7 109.84 150.12 70.79"/><polygon points="150.36 108.82 155.32 64.98 175.74 77.92 170.77 121.76 150.36 108.82"/><polygon points="155.32 64.98 175.74 77.92 170.77 121.76 150.36 108.82 155.32 64.98"/><polygon points="158.4 61.85 178.81 74.79 173.89 118.18 153.48 105.24 158.4 61.85"/><polygon points="159.45 81.92 165.7 74.88 186.12 87.82 179.86 94.86 159.45 81.92"/><polygon points="138.31 119.02 158.73 131.97 146.12 134.75 125.71 121.81 138.31 119.02"/><polygon points="138.31 119.03 139.53 108.32 159.94 121.26 158.73 131.97 138.31 119.03"/><polygon points="139.53 108.32 159.94 121.26 158.73 131.97 138.31 119.02 139.53 108.32"/><polygon points="141.44 115.44 141.98 110.67 162.39 123.61 161.85 128.38 141.44 115.44"/><polygon points="141.98 110.67 162.39 123.61 161.85 128.38 141.44 115.44 141.98 110.67"/><polygon points="145.7 109.84 166.11 122.79 162.39 123.61 141.98 110.67 145.7 109.84"/><polygon points="141.98 110.67 145.7 109.84 166.11 122.79 162.39 123.61 141.98 110.67"/><polygon points="200.07 24.97 220.48 37.91 217.02 41.82 196.61 28.88 200.07 24.97"/><polygon points="179.81 57.11 180.43 51.62 200.84 64.56 200.22 70.05 179.81 57.11"/><polygon points="166.9 77.51 187.31 90.45 182.47 95.91 162.06 82.97 166.9 77.51"/><polygon points="162.06 82.97 166.9 77.51 187.31 90.45 182.47 95.91 162.06 82.97"/><polygon points="182.93 53.53 183.47 48.76 203.88 61.7 203.34 66.47 182.93 53.53"/><polygon points="183.47 48.76 203.88 61.7 203.34 66.47 182.93 53.53 183.47 48.76"/><polygon points="187.19 47.93 207.6 60.87 203.88 61.7 183.47 48.76 187.19 47.93"/><polygon points="183.47 48.76 187.19 47.93 207.6 60.87 203.88 61.7 183.47 48.76"/><polygon points="198.53 14.88 212.25 11.85 232.66 24.79 218.95 27.82 198.53 14.88"/><polygon points="210.78 15.06 231.19 28 220.08 30.45 199.67 17.51 210.78 15.06"/><polygon points="199.67 17.51 210.78 15.06 231.19 28 220.08 30.45 199.67 17.51"/><polygon points="169.79 81.51 190.2 94.45 186.72 98.38 166.31 85.43 169.79 81.51"/><polygon points="166.31 85.43 169.79 81.51 190.2 94.45 186.72 98.38 166.31 85.43"/><polygon points="209.72 19.95 230.13 32.89 219.28 35.29 198.87 22.35 209.72 19.95"/><polygon points="198.87 22.35 209.72 19.95 230.13 32.89 219.28 35.29 198.87 22.35"/><polygon points="206.59 23.53 227 36.47 220.48 37.91 200.07 24.97 206.59 23.53"/><polygon points="191.85 46.91 194.01 27.83 214.42 40.77 212.26 59.85 191.85 46.91"/><polygon points="194.01 27.83 214.42 40.77 212.26 59.85 191.85 46.91 194.01 27.83"/><polygon points="196.61 28.88 217.02 41.82 215.38 56.26 194.97 43.32 196.61 28.88"/><polygon points="154.08 107.99 174.49 120.93 170.77 121.76 150.36 108.82 154.08 107.99"/><polygon points="150.36 108.82 154.08 107.99 174.49 120.93 170.77 121.76 150.36 108.82"/><polygon points="153.48 105.24 156.9 104.48 177.31 117.42 173.89 118.18 153.48 105.24"/><polygon points="156.9 104.48 159.45 81.92 179.86 94.86 177.31 117.42 156.9 104.48"/><polygon points="156.39 108.93 156.9 104.48 177.31 117.42 176.8 121.87 156.39 108.93"/><polygon points="156.9 104.48 177.31 117.42 176.8 121.87 156.39 108.93 156.9 104.48"/><polygon points="159.27 107.53 162.06 82.97 182.47 95.91 179.69 120.47 159.27 107.53"/><polygon points="162.06 82.97 182.47 95.91 179.69 120.47 159.27 107.53 162.06 82.97"/><polygon points="165.61 91.61 166.31 85.43 186.72 98.38 186.02 104.56 165.61 91.61"/><polygon points="166.31 85.43 186.72 98.38 186.02 104.56 165.61 91.61 166.31 85.43"/><polygon points="170.99 84.14 191.4 97.08 189.33 99.42 168.92 86.48 170.99 84.14"/><polygon points="168.92 86.48 189.33 99.42 189.15 100.97 168.74 88.03 168.92 86.48"/><polygon points="195.57 46.08 215.98 59.02 212.26 59.85 191.85 46.91 195.57 46.08"/><polygon points="191.85 46.91 195.57 46.08 215.98 59.02 212.26 59.85 191.85 46.91"/><polygon points="153.54 112.77 154.08 107.99 174.49 120.93 173.95 125.71 153.54 112.77"/><polygon points="153.54 112.77 173.95 125.71 161.85 128.38 141.44 115.44 153.54 112.77"/><polygon points="141.44 115.44 153.54 112.77 173.95 125.71 161.85 128.38 141.44 115.44"/><polygon points="154.08 107.99 174.49 120.93 173.95 125.71 153.54 112.77 154.08 107.99"/><polygon points="194.97 43.32 198.69 42.5 219.11 55.44 215.38 56.26 194.97 43.32"/><polygon points="156.66 109.19 156.39 108.93 176.8 121.87 177.07 122.13 156.66 109.19"/><polygon points="156.39 108.93 176.8 121.87 177.07 122.13 156.66 109.19 156.39 108.93"/><polygon points="214.19 20.59 210.78 15.06 231.19 28 234.6 33.53 214.19 20.59"/><polygon points="210.78 15.06 231.19 28 234.6 33.53 214.19 20.59 210.78 15.06"/><polygon points="195.03 50.85 195.57 46.08 215.98 59.02 215.44 63.79 195.03 50.85"/><polygon points="195.03 50.85 215.44 63.79 203.34 66.47 182.93 53.53 195.03 50.85"/><polygon points="182.93 53.53 195.03 50.85 215.44 63.79 203.34 66.47 182.93 53.53"/><polygon points="195.57 46.08 215.98 59.02 215.44 63.79 195.03 50.85 195.57 46.08"/><polygon points="155.99 115.11 176.4 128.05 158.73 131.97 138.31 119.03 155.99 115.11"/><polygon points="156.66 109.19 177.07 122.13 176.4 128.05 155.99 115.11 156.66 109.19"/><polygon points="164.42 102.13 165.07 96.39 185.48 109.33 184.83 115.08 164.42 102.13"/><polygon points="165.07 96.39 185.48 109.33 184.83 115.08 164.42 102.13 165.07 96.39"/><polygon points="212.25 11.85 232.66 24.79 237.43 32.54 217.01 19.6 212.25 11.85"/><polygon points="200.87 42.02 204.59 41.19 225 54.13 221.28 54.96 200.87 42.02"/><polygon points="204.59 41.19 206.59 23.53 227 36.47 225 54.13 204.59 41.19"/><polygon points="165.7 74.88 186.67 70.24 207.08 83.18 186.12 87.82 165.7 74.88"/><polygon points="185.64 73.36 206.05 86.3 187.31 90.45 166.9 77.51 185.64 73.36"/><polygon points="166.9 77.51 185.64 73.36 206.05 86.3 187.31 90.45 166.9 77.51"/><polygon points="180.83 79.08 201.24 92.02 190.2 94.45 169.79 81.51 180.83 79.08"/><polygon points="169.79 81.51 180.83 79.08 201.24 92.02 190.2 94.45 169.79 81.51"/><polygon points="167.53 98.73 187.94 111.68 187.72 113.67 167.31 100.73 167.53 98.73"/><polygon points="198.69 42.5 219.11 55.44 217.89 66.14 197.48 53.2 198.69 42.5"/><polygon points="197.48 53.2 217.89 66.14 200.22 70.05 179.81 57.11 197.48 53.2"/><polygon points="179.79 82.19 200.21 95.13 191.4 97.08 170.99 84.14 179.79 82.19"/><polygon points="162.73 110.73 159.27 107.53 179.69 120.47 183.14 123.67 162.73 110.73"/><polygon points="159.27 107.53 179.69 120.47 183.14 123.67 162.73 110.73 159.27 107.53"/><polygon points="199.66 52.72 200.87 42.02 221.28 54.96 220.07 65.66 199.66 52.72"/><polygon points="167.31 100.73 187.72 113.67 188.98 114.84 168.57 101.9 167.31 100.73"/><polygon points="161.7 113.85 156.66 109.19 177.07 122.13 182.11 126.79 161.7 113.85"/><polygon points="181.06 83.36 179.79 82.19 200.21 95.13 201.48 96.31 181.06 83.36"/><polygon points="202.78 49.14 203.32 44.37 223.73 57.31 223.19 62.08 202.78 49.14"/><polygon points="203.32 44.37 223.73 57.31 223.19 62.08 202.78 49.14 203.32 44.37"/><polygon points="167.54 105.02 164.42 102.13 184.83 115.08 187.95 117.96 167.54 105.02"/><polygon points="164.42 102.13 184.83 115.08 187.95 117.96 167.54 105.02 164.42 102.13"/><polygon points="207.04 43.54 227.45 56.48 223.73 57.31 203.32 44.37 207.04 43.54"/><polygon points="207.04 43.54 209.72 19.95 230.13 32.89 227.45 56.48 207.04 43.54"/><polygon points="209.72 19.95 230.13 32.89 227.45 56.48 207.04 43.54 209.72 19.95"/><polygon points="203.32 44.37 207.04 43.54 227.45 56.48 223.73 57.31 203.32 44.37"/><polygon points="168.74 88.03 180.84 85.36 201.25 98.3 189.15 100.97 168.74 88.03"/><polygon points="180.84 85.36 181.06 83.36 201.48 96.31 201.25 98.3 180.84 85.36"/><polygon points="183.94 81.96 180.83 79.08 201.24 92.02 204.35 94.9 183.94 81.96"/><polygon points="180.83 79.08 201.24 92.02 204.35 94.9 183.94 81.96 180.83 79.08"/><polygon points="189.09 76.57 185.64 73.36 206.05 86.3 209.5 89.51 189.09 76.57"/><polygon points="185.64 73.36 206.05 86.3 209.5 89.51 189.09 76.57 185.64 73.36"/><polygon points="211.7 42.52 214.19 20.59 234.6 33.53 232.11 55.46 211.7 42.52"/><polygon points="214.19 20.59 234.6 33.53 232.11 55.46 211.7 42.52 214.19 20.59"/><polygon points="183.29 87.7 183.94 81.96 204.35 94.9 203.7 100.64 183.29 87.7"/><polygon points="183.94 81.96 204.35 94.9 203.7 100.64 183.29 87.7 183.94 81.96"/><polygon points="183.29 87.7 203.7 100.64 186.02 104.56 165.61 91.61 183.29 87.7"/><polygon points="165.61 91.61 183.29 87.7 203.7 100.64 186.02 104.56 165.61 91.61"/><polygon points="186.67 70.24 207.08 83.18 212.12 87.85 191.7 74.91 186.67 70.24"/><polygon points="191.7 74.91 192.38 68.98 212.79 81.92 212.12 87.85 191.7 74.91"/><polygon points="217.01 19.6 237.43 32.54 235.24 51.87 214.82 38.93 217.01 19.6"/><polygon points="187.41 91.45 207.82 104.39 185.48 109.33 165.07 96.39 187.41 91.45"/><polygon points="165.07 96.39 187.41 91.45 207.82 104.39 185.48 109.33 165.07 96.39"/><polygon points="189.86 93.8 210.27 106.74 187.94 111.68 167.53 98.73 189.86 93.8"/><polygon points="168.57 101.9 177.38 99.95 197.79 112.89 188.98 114.84 168.57 101.9"/><polygon points="177.38 99.95 180.15 96.82 200.56 109.76 197.79 112.89 177.38 99.95"/><polygon points="187.41 91.45 189.09 76.57 209.5 89.51 207.82 104.39 187.41 91.45"/><polygon points="189.09 76.57 209.5 89.51 207.82 104.39 187.41 91.45 189.09 76.57"/><polygon points="191.16 79.68 191.7 74.91 212.12 87.85 211.58 92.62 191.16 79.68"/><polygon points="191.47 79.61 211.88 92.55 211.58 92.62 191.16 79.68 191.47 79.61"/><polygon points="191.7 74.91 212.12 87.85 211.58 92.62 191.16 79.68 191.7 74.91"/><polygon points="215.43 41.69 235.84 54.63 232.11 55.46 211.7 42.52 215.43 41.69"/><polygon points="211.7 42.52 215.43 41.69 235.84 54.63 232.11 55.46 211.7 42.52"/><polygon points="191.16 79.68 191.47 79.61 211.88 92.55 211.58 92.62 191.16 79.68"/><polygon points="194.29 76.1 194.83 71.33 215.24 84.27 214.7 89.04 194.29 76.1"/><polygon points="194.83 71.33 215.24 84.27 214.7 89.04 194.29 76.1 194.83 71.33"/><polygon points="214.82 38.93 218.55 38.11 238.96 51.05 235.24 51.87 214.82 38.93"/><polygon points="178.58 102.58 198.99 115.52 187.95 117.96 167.54 105.02 178.58 102.58"/><polygon points="167.54 105.02 178.58 102.58 198.99 115.52 187.95 117.96 167.54 105.02"/><polygon points="214.89 46.46 235.3 59.4 223.19 62.08 202.78 49.14 214.89 46.46"/><polygon points="202.78 49.14 214.89 46.46 235.3 59.4 223.19 62.08 202.78 49.14"/><polygon points="214.89 46.46 215.43 41.69 235.84 54.63 235.3 59.4 214.89 46.46"/><polygon points="215.43 41.69 235.84 54.63 235.3 59.4 214.89 46.46 215.43 41.69"/><polygon points="181.35 99.45 201.76 112.39 198.99 115.52 178.58 102.58 181.35 99.45"/><polygon points="178.58 102.58 181.35 99.45 201.76 112.39 198.99 115.52 178.58 102.58"/><polygon points="194.88 78.85 215.29 91.79 211.88 92.55 191.47 79.61 194.88 78.85"/><polygon points="198.01 75.28 218.42 88.22 214.7 89.04 194.29 76.1 198.01 75.28"/><polygon points="191.47 79.61 211.88 92.55 210.27 106.74 189.86 93.8 191.47 79.61"/><polygon points="180.15 96.82 189.76 94.7 210.17 107.64 200.56 109.76 180.15 96.82"/><polygon points="189.76 94.7 210.17 107.64 209.88 110.22 189.47 97.28 189.76 94.7"/><polygon points="192.88 96.53 194.88 78.85 215.29 91.79 213.29 109.47 192.88 96.53"/><polygon points="189.47 97.28 192.88 96.53 213.29 109.47 209.88 110.22 189.47 97.28"/><polygon points="195.34 98.86 198.01 75.28 218.42 88.22 215.75 111.81 195.34 98.86"/><polygon points="194.29 76.1 198.01 75.28 218.42 88.22 214.7 89.04 194.29 76.1"/><polygon points="192.38 68.98 206.33 65.89 226.74 78.83 212.79 81.92 192.38 68.98"/><polygon points="203.2 69.47 223.61 82.41 215.24 84.27 194.83 71.33 203.2 69.47"/><polygon points="194.83 71.33 203.2 69.47 223.61 82.41 215.24 84.27 194.83 71.33"/><polygon points="206.33 65.89 226.74 78.83 226.71 79.16 206.29 66.22 206.33 65.89"/><polygon points="217.34 48.81 237.75 61.75 220.07 65.66 199.66 52.72 217.34 48.81"/><polygon points="218.55 38.11 238.96 51.05 237.75 61.75 217.34 48.81 218.55 38.11"/><polygon points="206.29 66.22 206.68 65.81 227.09 78.75 226.71 79.16 206.29 66.22"/><polygon points="186.63 98.28 207.05 111.22 201.76 112.39 181.35 99.45 186.63 98.28"/><polygon points="181.35 99.45 186.63 98.28 207.05 111.22 201.76 112.39 181.35 99.45"/><polygon points="181.47 106.59 201.88 119.53 183.14 123.67 162.73 110.73 181.47 106.59"/><polygon points="162.73 110.73 181.47 106.59 201.88 119.53 183.14 123.67 162.73 110.73"/><polygon points="202.71 73.78 203.2 69.47 223.61 82.41 223.12 86.73 202.71 73.78"/><polygon points="203.2 69.47 223.61 82.41 223.12 86.73 202.71 73.78 203.2 69.47"/><polygon points="186.31 101.13 206.72 114.07 201.88 119.53 181.47 106.59 186.31 101.13"/><polygon points="181.47 106.59 186.31 101.13 206.72 114.07 201.88 119.53 181.47 106.59"/><polygon points="186.31 101.13 186.63 98.28 207.05 111.22 206.72 114.07 186.31 101.13"/><polygon points="186.63 98.28 207.05 111.22 206.72 114.07 186.31 101.13 186.63 98.28"/><polygon points="189.47 97.28 209.88 110.22 209.57 110.28 189.16 97.34 189.47 97.28"/><polygon points="189.16 97.34 189.47 97.28 209.88 110.22 209.57 110.28 189.16 97.34"/><polygon points="207.81 68.46 228.22 81.4 223.12 86.73 202.71 73.78 207.81 68.46"/><polygon points="202.71 73.78 207.81 68.46 228.22 81.4 223.12 86.73 202.71 73.78"/><polygon points="182.66 109.21 203.08 122.15 182.11 126.79 161.7 113.85 182.66 109.21"/><polygon points="198.01 75.28 218.42 88.22 215.75 111.81 195.34 98.86 198.01 75.28"/><polygon points="207.01 73.28 227.42 86.22 222.56 91.71 202.15 78.77 207.01 73.28"/><polygon points="202.15 78.77 207.01 73.28 227.42 86.22 222.56 91.71 202.15 78.77"/><polygon points="188.57 102.55 208.99 115.49 203.08 122.15 182.66 109.21 188.57 102.55"/><polygon points="188.57 102.55 189.16 97.34 209.57 110.28 208.99 115.49 188.57 102.55"/><polygon points="189.16 97.34 209.57 110.28 208.99 115.49 188.57 102.55 189.16 97.34"/><polygon points="208.22 75.91 228.63 88.85 225.17 92.75 204.75 79.81 208.22 75.91"/><polygon points="187.95 108.05 188.57 102.55 208.99 115.49 208.36 120.99 187.95 108.05"/><polygon points="191.07 104.46 191.62 99.69 212.03 112.63 211.49 117.41 191.07 104.46"/><polygon points="191.62 99.69 212.03 112.63 211.49 117.41 191.07 104.46 191.62 99.69"/><polygon points="195.34 98.86 215.75 111.81 212.03 112.63 191.62 99.69 195.34 98.86"/><polygon points="191.62 99.69 195.34 98.86 215.75 111.81 212.03 112.63 191.62 99.69"/><polygon points="199.99 97.84 202.15 78.77 222.56 91.71 220.4 110.78 199.99 97.84"/><polygon points="202.15 78.77 222.56 91.71 220.4 110.78 199.99 97.84 202.15 78.77"/><polygon points="204.75 79.81 225.17 92.75 223.53 107.2 203.12 94.26 204.75 79.81"/><polygon points="206.68 65.81 224.94 61.78 245.35 74.72 227.09 78.75 206.68 65.81"/><polygon points="221.82 65.35 242.23 78.29 228.22 81.4 207.81 68.46 221.82 65.35"/><polygon points="207.81 68.46 221.82 65.35 242.23 78.29 228.22 81.4 207.81 68.46"/><polygon points="203.71 97.01 224.12 109.95 220.4 110.78 199.99 97.84 203.71 97.01"/><polygon points="199.99 97.84 203.71 97.01 224.12 109.95 220.4 110.78 199.99 97.84"/><polygon points="221.28 70.13 221.82 65.35 242.23 78.29 241.69 83.08 221.28 70.13"/><polygon points="221.28 70.13 241.69 83.08 227.42 86.22 207.01 73.28 221.28 70.13"/><polygon points="207.01 73.28 221.28 70.13 241.69 83.08 227.42 86.22 207.01 73.28"/><polygon points="221.82 65.35 242.23 78.29 241.69 83.08 221.28 70.13 221.82 65.35"/><polygon points="203.12 94.26 206.84 93.44 227.25 106.38 223.53 107.2 203.12 94.26"/><polygon points="203.17 101.79 223.58 114.73 211.49 117.41 191.07 104.46 203.17 101.79"/><polygon points="191.07 104.46 203.17 101.79 223.58 114.73 211.49 117.41 191.07 104.46"/><polygon points="203.17 101.79 203.71 97.01 224.12 109.95 223.58 114.73 203.17 101.79"/><polygon points="203.71 97.01 224.12 109.95 223.58 114.73 203.17 101.79 203.71 97.01"/><polygon points="223.73 72.47 244.14 85.41 228.63 88.85 208.22 75.91 223.73 72.47"/><polygon points="224.94 61.78 245.35 74.72 244.14 85.41 223.73 72.47 224.94 61.78"/><polygon points="205.63 104.13 226.04 117.07 208.36 120.99 187.95 108.05 205.63 104.13"/><polygon points="206.84 93.44 227.25 106.38 226.04 117.07 205.63 104.13 206.84 93.44"/></g><g class="cls-3"><g class="cls-4"><polyline class="cls-5" points="64.29 30.71 50.33 33.79 49.56 40.54 53.28 39.72 51.57 54.89 40.72 57.29 42.43 42.12 46.15 41.3 46.91 34.55 32.96 37.64 32.19 44.38 35.92 43.57 31.72 80.65 27.99 81.48 27.23 88.22 41.18 85.14 41.95 78.39 38.23 79.21 39.95 64.04 50.8 61.64 49.09 76.81 45.36 77.64 44.6 84.38 58.56 81.3 59.33 74.54 55.6 75.37 59.8 38.28 63.52 37.45 64.29 30.71"/><path d="M49.56,40.54l.77-6.75,14-3.08-.76,6.74-3.73.83L55.6,75.37l3.73-.83-.77,6.75-14,3.09.76-6.75,3.72-.82L50.8,61.64,40,64,38.23,79.21,42,78.39l-.77,6.75L27.23,88.22,28,81.48l3.73-.83,4.2-37.08-3.73.81L33,37.64l13.95-3.09-.76,6.75-3.72.82L40.72,57.29l10.85-2.4,1.71-15.17-3.72.82m15.77-11L49.51,33l-1,8.72,3.72-.82-1.49,13.2-9,2,1.49-13.19L47,42.08l1-8.73-15.82,3.5-1,8.72,3.73-.81-4,35.11-3.72.83-1,8.71L42,85.92l1-8.73L39.27,78l1.5-13.2,9-2L48.27,76l-3.73.82-1,8.72,15.82-3.49,1-8.73-3.73.83,4-35.12,3.72-.82,1-8.73"/><path class="cls-5" d="M76.18,43.16,66,45.43l-.76,6.74,3.72-.82L66.46,73l-3.72.82L62,80.54l14-3.09.76-6.74L73,71.52l3.21-28.36M77.5,31.55,71,33l-.77,6.76,6.51-1.44.77-6.76"/><path d="M65.19,52.17,66,45.43l10.23-2.27L73,71.52l3.72-.81-.76,6.74L62,80.54l.77-6.75L66.46,73l2.45-21.62-3.72.82m12-10.2L65.13,44.64l-1,8.72,3.72-.81L65.64,72.18,61.91,73l-1,8.72,15.82-3.5,1-8.72L74,70.33,77.22,42m-7-2.22L71,33l6.51-1.44-.77,6.76-6.51,1.44m8.32-9.39-8.38,1.85-1,8.73,8.38-1.85,1-8.73"/><path class="cls-5" d="M89.45,67.88,87,65.57l1.8-15.88,3-3.39,9.06-2,2.49,2.32-1.8,15.88-3,3.39-9.06,2m27-48.7-10.24,2.26L104.05,40.1l-2.7-2.51L88.07,40.53l-5.31,6L79.89,71.9,84,75.68l13.28-2.94,3.57-4L100.43,72l10.24-2.27.77-6.75-3.72.82,4.2-37.09,3.72-.82.76-6.75"/><path d="M89.8,66.85,87.92,65.1,89.62,50l2.55-2.87,8.3-1.83,1.88,1.75-1.7,15.06L98.11,65,89.8,66.85m11-22.56-9.06,2-3,3.39L87,65.57l2.49,2.31,9.06-2,3-3.39,1.8-15.88-2.49-2.32m3.23-4.19,2.11-18.66,10.24-2.26-.76,6.75-3.72.82-4.2,37.09,3.72-.82-.77,6.75L100.43,72l.38-3.33-3.57,4L84,75.68,79.89,71.9l2.87-25.38,5.31-6,13.28-2.94,2.7,2.51M117.44,18l-12.09,2.67-2,17.45-1.68-1.55-14,3.09-5.78,6.52-3,26.2,4.69,4.34,14-3.1,2-2.22-.21,1.84,12.1-2.68,1-8.72-3.72.82,4-35.11,3.73-.83,1-8.72"/><path class="cls-5" d="M124.2,60.2l-2.5-2.32L123.5,42l3-3.39,9.06-2,2.5,2.31-1.8,15.89-3,3.39-9.06,2m27-48.7-10.24,2.26L138.8,32.41l-2.71-2.5-13.27,2.94-5.31,6-2.88,25.37L118.7,68,132,65.06l3.58-4-.38,3.33,10.24-2.27.76-6.74-3.72.81,4.2-37.08,3.72-.83.77-6.74"/><path d="M124.54,59.16l-1.88-1.75,1.71-15.06,2.53-2.86,8.32-1.84,1.88,1.74-1.71,15.07-2.53,2.86-8.32,1.84m11-22.55-9.06,2-3,3.39-1.8,15.88,2.5,2.32,9.06-2,3-3.39,1.8-15.89-2.5-2.31m3.24-4.2,2.11-18.65,10.24-2.26-.77,6.74-3.72.83-4.2,37.08,3.72-.81-.76,6.74-10.24,2.27.38-3.33-3.58,4L118.7,68l-4.07-3.78,2.88-25.37,5.31-6,13.27-2.94,2.71,2.5m13.39-22.1L140.09,13l-2,17.45-1.68-1.55-14,3.1-5.78,6.52-3,26.19L118.36,69l14-3.1,2-2.22-.21,1.83,12.1-2.68,1-8.72L143.5,55l4-35.11L151.2,19l1-8.71"/><path class="cls-5" d="M157.71,39l.53-4.64,3-3.39,10.3-2.28L174,31l-.51,4.49L157.71,39m19.34-18.11-19.49,4.31-5.31,6-2.87,25.39,4.06,3.77L172.93,56l5.31-6,.5-4.39L172,47.1l-2.77,3.13-10.3,2.28-2.5-2.31.51-4.5,22.34-4.93,1.82-16.14-4.06-3.78"/><path d="M158.76,37.77l.35-3.11,2.54-2.86,9.55-2.11,1.88,1.74-.36,3.24-14,3.1m12.79-9.12-10.3,2.28-3,3.39L157.71,39l15.82-3.51L174,31l-2.49-2.31M153.44,60.31l-4.06-3.77,2.87-25.39,5.31-6,19.49-4.31,4.06,3.78-1.82,16.14L157,45.7l-.51,4.5,2.5,2.31,10.3-2.28L172,47.1l6.73-1.48-.5,4.39-5.31,6-19.49,4.31m23.94-40.49-20.06,4.43-.16,0-5.78,6.52-3,26.21,4.68,4.33,20.23-4.46,5.78-6.52.67-5.93-8.17,1.8-2.77,3.13-9.55,2.12-1.88-1.75.36-3.24,22.33-4.94,2-17.39-4.69-4.34"/><polyline class="cls-5" points="210.48 13.46 198.5 16.11 194.97 19.8 195.31 16.82 185.07 19.08 184.31 25.82 188.03 25.01 185.58 46.63 181.86 47.44 181.09 54.2 195.06 51.1 195.82 44.36 192.1 45.18 194.08 27.65 198.48 22.69 207.88 20.61 205.44 42.23 201.71 43.05 200.95 49.8 214.91 46.71 215.67 39.97 211.95 40.79 214.34 19.73 210.48 13.46"/><path d="M195,19.8l3.53-3.69,12-2.65,3.86,6.27L212,40.79l3.72-.82-.76,6.74L201,49.8l.76-6.75,3.72-.82,2.45-21.61-9.4,2.07-4.4,5-2,17.53,3.72-.82-.76,6.74-14,3.1.77-6.76,3.72-.81L188,25l-3.72.81.76-6.74,10.24-2.26-.34,3m16-7.41-12.85,2.84-2,2.05.19-1.66-12.1,2.67-1,8.73L187,26.2l-2.23,19.63-3.72.83-1,8.73,15.82-3.5,1-8.72-3.72.81L195,28l3.93-4.43,8-1.76-2.22,19.63-3.73.83-1,8.73,15.82-3.5,1-8.72L213,39.6l2.29-20.2-4.31-7"/><polyline class="cls-5" points="48.85 86.86 34.9 89.94 34.13 96.69 37.86 95.87 36.14 111.03 25.28 113.44 27 98.27 30.72 97.45 31.48 90.7 17.52 93.79 16.76 100.53 20.48 99.72 16.28 136.8 12.56 137.63 11.79 144.37 25.75 141.29 26.52 134.54 22.8 135.36 24.52 120.19 35.37 117.79 33.66 132.96 29.93 133.78 29.17 140.53 43.12 137.44 43.89 130.7 40.17 131.52 44.37 94.43 48.09 93.61 48.85 86.86"/><path d="M34.13,96.69l.77-6.75,14-3.08-.76,6.74-3.72.83-4.2,37.09,3.72-.82-.77,6.75-13.95,3.08.76-6.74,3.73-.83,1.71-15.17-10.86,2.4L22.8,135.36l3.72-.82-.76,6.75-14,3.08.77-6.74,3.72-.83,4.2-37.08-3.72.81.76-6.74,14-3.09-.76,6.75L27,98.27l-1.72,15.17L36.14,111l1.72-15.16-3.73.82m15.77-11L34.08,89.16l-1,8.72,3.73-.82-1.5,13.2-9,2,1.49-13.19,3.73-.83,1-8.72L16.7,93l-1,8.72,3.72-.81-4,35.11-3.72.83-1,8.71,15.82-3.49,1-8.73-3.72.83L25.33,121l9-2-1.49,13.2-3.72.82-1,8.72L44,138.23l1-8.73-3.73.83,4-35.12,3.72-.82,1-8.72"/><path class="cls-5" d="M56.65,127.87l-2.5-2.31L56,109.68l3-3.39L69.26,104l2.49,2.31L70,122.21l-3,3.39-10.3,2.27m18.1-31.66-19.48,4.31-5.32,6-2.87,25.38,4.08,3.78,19.47-4.31,5.32-6L78.83,100l-4.08-3.78"/><path d="M57,126.84l-1.88-1.75L56.82,110l2.54-2.87,9.55-2.11,1.89,1.74-1.71,15.07-2.54,2.86L57,126.84M69.26,104,59,106.29l-3,3.39-1.8,15.88,2.5,2.31L67,125.6l3-3.39,1.79-15.89L69.26,104m-18.1,31.66-4.08-3.78L50,106.51l5.32-6,19.48-4.31L78.83,100,76,125.37l-5.32,6-19.47,4.31M75.1,95.18,54.87,99.65l-5.78,6.52-3,26.19,4.69,4.35L71,132.24l5.79-6.52,3-26.2L75.1,95.18"/><polyline class="cls-5" points="111.63 88.06 96.21 91.47 92.68 95.16 93.02 92.17 82.77 94.44 82.01 101.19 85.73 100.36 83.28 121.98 79.56 122.81 78.8 129.55 92.76 126.47 93.53 119.72 89.8 120.54 91.79 103.01 96.18 98.06 110.87 94.8 111.63 88.06"/><path d="M92.68,95.16l3.53-3.69,15.42-3.41-.76,6.74L96.18,98.06l-4.39,5-2,17.53,3.73-.82-.77,6.75-14,3.08.76-6.74,3.73-.83,2.44-21.62-3.72.83.76-6.75L93,92.17l-.34,3m20-8.29L95.83,90.59l-2,2L94.06,91,82,93.66l-1,8.72,3.72-.82L82.47,121.2l-3.72.82-1,8.73,15.82-3.5,1-8.72-3.73.82,1.81-16,3.93-4.44,15.1-3.33,1-8.72"/><polyline class="cls-5" points="130.75 68.74 120.52 71.01 119.75 77.76 123.48 76.93 122.49 85.66 115.04 87.3 114.28 94.06 121.72 92.41 119.35 113.4 125.61 119.21 136.19 116.86 136.96 110.11 125.79 112.58 128.23 90.96 135.68 89.32 136.44 82.57 129 84.22 130.75 68.74"/><path d="M119.75,77.76l.77-6.75,10.23-2.27L129,84.22l7.44-1.65-.76,6.75L128.23,91l-2.44,21.62L137,110.11l-.76,6.75-10.58,2.35-6.26-5.81,2.37-21-7.44,1.66L115,87.3l7.45-1.64,1-8.73-3.73.83m12-10.21L119.7,70.23l-1,8.72,3.72-.82-.77,6.75-7.43,1.64-1,8.73,7.44-1.65-2.3,20.27,6.88,6.37,11.75-2.6,1-8.72-11.17,2.47,2.22-19.65,7.45-1.64,1-8.73L130,83l1.75-15.47"/><polyline class="cls-5" points="155.57 63.26 145.33 65.52 144.57 72.27 148.29 71.44 144.09 108.53 140.37 109.36 139.6 116.11 153.57 113.02 154.33 106.27 150.61 107.1 155.57 63.26"/><path d="M144.57,72.27l.76-6.75,10.24-2.26-5,43.84,3.72-.83-.76,6.75-14,3.09.77-6.75,3.72-.83,4.2-37.08-3.72.82m12-10.2-12.09,2.66-1,8.73,3.72-.82-4,35.12-3.72.81-1,8.73,15.82-3.5,1-8.72-3.72.82,5-43.83"/><path class="cls-5" d="M165.86,89.89l.53-4.64,3-3.39,10.3-2.28,2.49,2.32-.51,4.49-15.82,3.5m19.33-18.1L165.7,76.1l-5.31,6-2.87,25.38,4.07,3.77,19.49-4.31,5.31-6,.49-4.39-6.72,1.5-2.78,3.12-10.3,2.28-2.49-2.32.51-4.49,22.33-4.94,1.83-16.13-4.07-3.78"/><path d="M166.9,88.7l.35-3.1,2.54-2.86,9.56-2.11,1.88,1.74-.37,3.25-14,3.08m12.8-9.12-10.3,2.28-3,3.39-.53,4.64,15.82-3.5.51-4.49-2.49-2.32m-18.11,31.66-4.07-3.77,2.87-25.38,5.31-6,19.49-4.31,4.07,3.78L187.43,91.7,165.1,96.64l-.51,4.49,2.49,2.32,10.3-2.28,2.78-3.12,6.72-1.5-.49,4.39-5.31,6-19.49,4.31m23.94-40.49L165.3,75.23l-5.78,6.52-3,26.19,4.68,4.35,20.23-4.48,5.78-6.52.67-5.93-8.16,1.81L177,100.3l-9.55,2.11-1.88-1.75.36-3.24,22.34-4.94,2-17.38-4.69-4.35"/><polyline class="cls-5" points="222.06 63.63 206.65 67.05 203.11 70.73 203.45 67.75 193.22 70.01 192.45 76.77 196.17 75.94 193.72 97.56 190.01 98.38 189.24 105.13 203.2 102.05 203.96 95.29 200.24 96.12 202.22 78.58 206.62 73.63 221.3 70.39 222.06 63.63"/><path d="M203.11,70.73l3.54-3.68,15.42-3.42-.77,6.75-14.68,3.25-4.4,5-2,17.54,3.72-.83-.76,6.76-14,3.08.77-6.75,3.71-.82,2.45-21.62-3.72.83.77-6.76,10.23-2.26-.34,3m20-8.29-16.7,3.69-.15,0-2,2,.19-1.65-12.1,2.67-1,8.73,3.73-.83L192.9,96.78l-3.72.81-1,8.73,15.82-3.5,1-8.72-3.72.83,1.81-16L207,74.51l15.1-3.34,1-8.73"/></g></g></g></g></svg>