<svg id="Layer_1" data-name="Layer 1" xmlns="http://www.w3.org/2000/svg" xmlns:xlink="http://www.w3.org/1999/xlink" viewBox="0 0 50 50"><defs><style>.cls-1{fill:none;}.cls-2{clip-path:url(#clip-path);}.cls-3{fill:#0071bc;}.cls-4{fill:gray;}</style><clipPath id="clip-path"><path class="cls-1" d="M40,35A14.61,14.61,0,0,0,28.51,21.42a11,11,0,1,0-7,0A14.61,14.61,0,0,0,10,35h0V50H40V35Z"/></clipPath></defs><title>sus-lib</title><g class="cls-2"><rect class="cls-3" width="50" height="2"/><rect class="cls-4" y="2" width="50" height="2"/><rect class="cls-3" y="4" width="50" height="2"/><rect class="cls-4" y="6" width="50" height="2"/><rect class="cls-3" y="8" width="50" height="2"/><rect class="cls-4" y="10" width="50" height="2"/><rect class="cls-3" y="12" width="50" height="2"/><rect class="cls-4" y="14" width="50" height="2"/><rect class="cls-3" y="16" width="50" height="2"/><rect class="cls-4" y="18" width="50" height="2"/><rect class="cls-3" y="20" width="50" height="2"/><rect class="cls-4" y="22" width="50" height="2"/><rect class="cls-3" y="24" width="50" height="2"/><rect class="cls-4" y="26" width="50" height="2"/><rect class="cls-3" y="28" width="50" height="2"/><rect class="cls-4" y="30" width="50" height="2"/><rect class="cls-3" y="32" width="50" height="2"/><rect class="cls-4" y="34" width="50" height="2"/><rect class="cls-3" y="36" width="50" height="2"/><rect class="cls-4" y="38" width="50" height="2"/><rect class="cls-3" y="40" width="50" height="2"/><rect class="cls-4" y="42" width="50" height="2"/><rect class="cls-3" y="44" width="50" height="2"/><rect class="cls-4" y="46" width="50" height="2"/><rect class="cls-3" y="48" width="50" height="2"/></g></svg>